0
SECTION
2
HEADER
9
$INSUNITS
70
4
9
$ACADVER
1
AC1014
9
$HANDSEED
5
FFFF
0
ENDSEC
0
SECTION
2
TABLES
0
TABLE
2
VPORT
5
8
100
AcDbSymbolTable
0
ENDTAB
0
TABLE
2
LTYPE
5
5
100
AcDbSymbolTable
0
LTYPE
5
14
100
AcDbSymbolTableRecord
100
AcDbLinetypeTableRecord
2
BYBLOCK
70
0
0
LTYPE
5
15
100
AcDbSymbolTableRecord
100
AcDbLinetypeTableRecord
2
BYLAYER
70
0
0
ENDTAB
0
TABLE
2
LAYER
5
2
100
AcDbSymbolTable
70
2
0
LAYER
5
50
100
AcDbSymbolTableRecord
100
AcDbLayerTableRecord
2
0
70
0
6
CONTINUOUS
0
ENDTAB
0
TABLE
2
STYLE
5
3
100
AcDbSymbolTable
70
1
0
STYLE
5
11
100
AcDbSymbolTableRecord
100
AcDbTextStyleTableRecord
2
STANDARD
70
0
0
ENDTAB
0
TABLE
2
VIEW
5
6
100
AcDbSymbolTable
70
0
0
ENDTAB
0
TABLE
2
UCS
5
7
100
AcDbSymbolTable
70
0
0
ENDTAB
0
TABLE
2
APPID
5
9
100
AcDbSymbolTable
70
2
0
APPID
5
12
100
AcDbSymbolTableRecord
100
AcDbRegAppTableRecord
2
ACAD
70
0
0
ENDTAB
0
TABLE
2
DIMSTYLE
5
A
100
AcDbSymbolTable
70
1
0
ENDTAB
0
TABLE
2
BLOCK_RECORD
5
1
100
AcDbSymbolTable
70
1
0
BLOCK_RECORD
5
1F
100
AcDbSymbolTableRecord
100
AcDbBlockTableRecord
2
*MODEL_SPACE
0
BLOCK_RECORD
5
1B
100
AcDbSymbolTableRecord
100
AcDbBlockTableRecord
2
*PAPER_SPACE
0
ENDTAB
0
ENDSEC
0
SECTION
2
BLOCKS
0
BLOCK
5
20
100
AcDbEntity
100
AcDbBlockBegin
2
*MODEL_SPACE
0
ENDBLK
5
21
100
AcDbEntity
100
AcDbBlockEnd
0
BLOCK
5
1C
100
AcDbEntity
100
AcDbBlockBegin
2
*PAPER_SPACE
0
ENDBLK
5
1D
100
AcDbEntity
100
AcDbBlockEnd
0
ENDSEC
0
SECTION
2
ENTITIES
0
LWPOLYLINE
5
100
100
AcDbEntity
8
0
100
AcDbPolyline
90
4
70
1
43
0.0
10
15.240000000000006
20
64.250000000000014
10
-15.239999999999995
20
64.250000000000014
10
-15.239999999999998
20
-64.25
10
15.240000000000002
20
-64.25
0
LWPOLYLINE
5
101
100
AcDbEntity
8
0
100
AcDbPolyline
90
4
70
1
43
0.0
10
14.989999999999997
20
64.250000000000014
10
-14.989999999999991
20
64.250000000000014
10
-14.989999999999991
20
-64.25
10
14.989999999999997
20
-64.25
0
LINE
5
102
100
AcDbEntity
8
0
100
AcDbLine
10
-2.2204460492503127e-15
20
64.25
30
0
11
2.2204460492503131e-15
21
-64.25
31
0
0
LWPOLYLINE
5
103
100
AcDbEntity
8
0
100
AcDbPolyline
90
4
70
1
43
0.0
10
14.740000000000002
20
53.25
10
-14.739999999999998
20
53.25
10
-14.739999999999998
20
-53.25
10
14.740000000000002
20
-53.25
0
CIRCLE
5
104
100
AcDbEntity
8
0
100
AcDbCircle
10
-7.7399999999999958
20
61.250000000000014
30
0
40
1.5000000000000009
210
0
220
0
230
1
0
CIRCLE
5
105
100
AcDbEntity
8
0
100
AcDbCircle
10
7.5000000000000044
20
61.250000000000014
30
0
40
1.5000000000000002
210
0
220
0
230
1
0
LINE
5
106
100
AcDbEntity
8
0
100
AcDbLine
10
14.989999999999997
20
4.4687242124295589e-15
30
0
11
-14.739999999999998
21
-2.199507161601184e-15
31
0
0
CIRCLE
5
107
100
AcDbEntity
8
0
100
AcDbCircle
10
-7.7399999999999958
20
-61.25
30
0
40
1.5000000000000013
210
0
220
0
230
1
0
CIRCLE
5
108
100
AcDbEntity
8
0
100
AcDbCircle
10
7.5000000000000044
20
-61.25
30
0
40
1.4999999999999989
210
0
220
0
230
1
0
LINE
5
109
100
AcDbEntity
8
0
100
AcDbLine
10
-14.739999999999998
20
50
30
0
11
14.740000000000002
21
50.000000000000014
31
0
0
LINE
5
110
100
AcDbEntity
8
0
100
AcDbLine
10
-14.739999999999998
20
-50
30
0
11
14.740000000000002
21
-50
31
0
0
LINE
5
111
100
AcDbEntity
8
0
100
AcDbLine
10
-9.2399999999999984
20
61.250000000000007
30
0
11
-6.2400000000000011
21
61.250000000000007
31
0
0
CIRCLE
5
112
100
AcDbEntity
8
0
100
AcDbCircle
10
-9.2399999999999984
20
61.250000000000007
30
0
40
1.4999999999999989
210
0
220
0
230
1
0
CIRCLE
5
113
100
AcDbEntity
8
0
100
AcDbCircle
10
-6.2400000000000011
20
61.250000000000007
30
0
40
1.4999999999999978
210
0
220
0
230
1
0
LINE
5
114
100
AcDbEntity
8
0
100
AcDbLine
10
-9.2399999999999984
20
62.75
30
0
11
-6.2400000000000011
21
62.75
31
0
0
LINE
5
115
100
AcDbEntity
8
0
100
AcDbLine
10
6.0000000000000009
20
62.750000000000014
30
0
11
9.0000000000000018
21
62.750000000000014
31
0
0
LINE
5
116
100
AcDbEntity
8
0
100
AcDbLine
10
-6.2399999999983757
20
59.750000000003254
30
0
11
-9.2399999999983997
21
59.750000000000014
31
0
0
CIRCLE
5
117
100
AcDbEntity
8
0
100
AcDbCircle
10
6.0000000000000053
20
61.250000000000014
30
0
40
1.4999999999999989
210
0
220
0
230
1
0
LINE
5
118
100
AcDbEntity
8
0
100
AcDbLine
10
6.0000000000000053
20
61.250000000000014
30
0
11
9.0000000000000036
21
61.250000000000014
31
0
0
CIRCLE
5
119
100
AcDbEntity
8
0
100
AcDbCircle
10
9.0000000000000036
20
61.250000000000014
30
0
40
1.4999999999999978
210
0
220
0
230
1
0
LINE
5
120
100
AcDbEntity
8
0
100
AcDbLine
10
9.0000008101024136
20
59.749999999992284
30
0
11
6.0000000000016236
21
59.750000000000021
31
0
0
LINE
5
121
100
AcDbEntity
8
0
100
AcDbLine
10
-9.2399999999999984
20
-61.250000000000007
30
0
11
-6.2400000000000011
21
-61.250000000000007
31
0
0
CIRCLE
5
122
100
AcDbEntity
8
0
100
AcDbCircle
10
-9.2399999999999984
20
-61.250000000000007
30
0
40
1.4999999999999989
210
0
220
0
230
1
0
CIRCLE
5
123
100
AcDbEntity
8
0
100
AcDbCircle
10
-6.2400000000000011
20
-61.250000000000007
30
0
40
1.4999999999999978
210
0
220
0
230
1
0
LINE
5
124
100
AcDbEntity
8
0
100
AcDbLine
10
-9.2399999999999984
20
-59.750000000000014
30
0
11
-6.2400000000000011
21
-59.750000000000014
31
0
0
LINE
5
125
100
AcDbEntity
8
0
100
AcDbLine
10
6.0000000000000053
20
-59.750000000000007
30
0
11
9.0000000000000036
21
-59.750000000000007
31
0
0
LINE
5
126
100
AcDbEntity
8
0
100
AcDbLine
10
-6.2399999999983757
20
-62.74999999999676
30
0
11
-9.2399999999983997
21
-62.75
31
0
0
CIRCLE
5
127
100
AcDbEntity
8
0
100
AcDbCircle
10
6.0000000000000053
20
-61.25
30
0
40
1.4999999999999989
210
0
220
0
230
1
0
LINE
5
128
100
AcDbEntity
8
0
100
AcDbLine
10
6.0000000000000053
20
-61.25
30
0
11
9.0000000000000036
21
-61.25
31
0
0
CIRCLE
5
129
100
AcDbEntity
8
0
100
AcDbCircle
10
9.0000000000000036
20
-61.25
30
0
40
1.4999999999999978
210
0
220
0
230
1
0
LINE
5
130
100
AcDbEntity
8
0
100
AcDbLine
10
8.9999995303361029
20
-62.750000000007731
30
0
11
6.0000000000016263
21
-62.749999999999993
31
0
0
LINE
5
131
100
AcDbEntity
8
0
100
AcDbLine
10
-7.6200000000000028
20
64.250000000000014
30
0
11
-7.6200000000000099
21
-64.251036523104077
31
0
0
LINE
5
132
100
AcDbEntity
8
0
100
AcDbLine
10
7.6199999999999974
20
64.250000000000014
30
0
11
7.6199999999999903
21
-64.309497562336205
31
0
0
CIRCLE
5
133
100
AcDbEntity
8
0
100
AcDbCircle
10
-7.6200000000000037
20
44.450000000000003
30
0
40
3.0499999999999998
210
0
220
0
230
1
0
CIRCLE
5
134
100
AcDbEntity
8
0
100
AcDbCircle
10
7.6199999999999966
20
44.450000000000003
30
0
40
3.0499999999999998
210
0
220
0
230
1
0
CIRCLE
5
135
100
AcDbEntity
8
0
100
AcDbCircle
10
-7.6200000000000037
20
31.750000000000007
30
0
40
3.0499999999999998
210
0
220
0
230
1
0
CIRCLE
5
136
100
AcDbEntity
8
0
100
AcDbCircle
10
7.6199999999999966
20
31.750000000000007
30
0
40
3.0499999999999998
210
0
220
0
230
1
0
CIRCLE
5
137
100
AcDbEntity
8
0
100
AcDbCircle
10
-7.6200000000000037
20
19.050000000000004
30
0
40
3.0499999999999998
210
0
220
0
230
1
0
CIRCLE
5
138
100
AcDbEntity
8
0
100
AcDbCircle
10
7.6199999999999966
20
19.050000000000004
30
0
40
3.0499999999999998
210
0
220
0
230
1
0
CIRCLE
5
139
100
AcDbEntity
8
0
100
AcDbCircle
10
-7.6200000000000037
20
6.350000000000005
30
0
40
3.0499999999999998
210
0
220
0
230
1
0
CIRCLE
5
140
100
AcDbEntity
8
0
100
AcDbCircle
10
7.6199999999999966
20
6.350000000000005
30
0
40
3.0499999999999998
210
0
220
0
230
1
0
CIRCLE
5
141
100
AcDbEntity
8
0
100
AcDbCircle
10
-7.6200000000000037
20
-6.3499999999999961
30
0
40
3.0499999999999998
210
0
220
0
230
1
0
CIRCLE
5
142
100
AcDbEntity
8
0
100
AcDbCircle
10
7.6199999999999966
20
-6.3499999999999961
30
0
40
3.0499999999999998
210
0
220
0
230
1
0
CIRCLE
5
143
100
AcDbEntity
8
0
100
AcDbCircle
10
-7.6200000000000037
20
-19.04999999999999
30
0
40
3.0499999999999998
210
0
220
0
230
1
0
CIRCLE
5
144
100
AcDbEntity
8
0
100
AcDbCircle
10
7.6199999999999966
20
-19.04999999999999
30
0
40
3.0499999999999998
210
0
220
0
230
1
0
CIRCLE
5
145
100
AcDbEntity
8
0
100
AcDbCircle
10
-7.6200000000000037
20
-31.75
30
0
40
3.0499999999999998
210
0
220
0
230
1
0
CIRCLE
5
146
100
AcDbEntity
8
0
100
AcDbCircle
10
7.6199999999999966
20
-31.75
30
0
40
3.0499999999999998
210
0
220
0
230
1
0
CIRCLE
5
147
100
AcDbEntity
8
0
100
AcDbCircle
10
-7.6200000000000037
20
-44.450000000000003
30
0
40
3.0499999999999998
210
0
220
0
230
1
0
CIRCLE
5
148
100
AcDbEntity
8
0
100
AcDbCircle
10
7.6199999999999966
20
-44.450000000000003
30
0
40
3.0499999999999998
210
0
220
0
230
1
0
LINE
5
149
100
AcDbEntity
8
0
100
AcDbLine
10
-7.6200000000000037
20
44.450000000000003
30
0
11
7.6199999999999966
21
44.450000000000003
31
0
0
CIRCLE
5
150
100
AcDbEntity
8
0
100
AcDbCircle
10
-3.3306690738754696e-15
20
44.450000000000003
30
0
40
1.5999999999999981
210
0
220
0
230
1
0
CIRCLE
5
151
100
AcDbEntity
8
0
100
AcDbCircle
10
-2.8917637847629564e-15
20
31.750000000000004
30
0
40
1.5999999999999981
210
0
220
0
230
1
0
CIRCLE
5
152
100
AcDbEntity
8
0
100
AcDbCircle
10
-2.4528584956504431e-15
20
19.050000000000004
30
0
40
1.5999999999999981
210
0
220
0
230
1
0
CIRCLE
5
153
100
AcDbEntity
8
0
100
AcDbCircle
10
-2.0139532065379302e-15
20
6.3500000000000023
30
0
40
1.5999999999999981
210
0
220
0
230
1
0
CIRCLE
5
154
100
AcDbEntity
8
0
100
AcDbCircle
10
-1.575047917425417e-15
20
-6.3499999999999979
30
0
40
1.5999999999999981
210
0
220
0
230
1
0
CIRCLE
5
155
100
AcDbEntity
8
0
100
AcDbCircle
10
-1.1361426283129037e-15
20
-19.049999999999994
30
0
40
1.5999999999999981
210
0
220
0
230
1
0
CIRCLE
5
156
100
AcDbEntity
8
0
100
AcDbCircle
10
-6.9723733920039062e-16
20
-31.75
30
0
40
1.5999999999999981
210
0
220
0
230
1
0
CIRCLE
5
157
100
AcDbEntity
8
0
100
AcDbCircle
10
-2.5833205008787696e-16
20
-44.450000000000003
30
0
40
1.5999999999999981
210
0
220
0
230
1
0
ENDSEC
0
SECTION
2
OBJECTS
0
DICTIONARY
5
C
100
AcDbDictionary
3
ACAD_GROUP
350
D
3
ACAD_MLINESTYLE
350
17
0
DICTIONARY
5
D
100
AcDbDictionary
0
DICTIONARY
5
1A
330
C
100
AcDbDictionary
0
DICTIONARY
5
17
100
AcDbDictionary
0
ENDSEC
0
EOF
