M48
; DRILL file {KiCad 5.1.4-e60b266~84~ubuntu18.04.1} date Mon Oct 28 13:21:55 2019
; FORMAT={-:-/ absolute / inch / decimal}
; #@! TF.CreationDate,2019-10-28T13:21:55+08:00
; #@! TF.GenerationSoftware,Kicad,Pcbnew,5.1.4-e60b266~84~ubuntu18.04.1
; #@! TF.FileFunction,Plated,1,2,PTH
FMAT,2
INCH
T1C0.0157
T2C0.0197
T3C0.0236
T4C0.0354
T5C0.0394
%
G90
G05
T1
X4.49Y-2.78
X4.54Y-1.989
X4.5798Y-2.1468
X4.6271Y-3.732
X4.648Y-5.2181
X4.6964Y-5.2311
X4.7679Y-3.292
X4.7866Y-2.7244
X4.8489Y-5.8409
X4.885Y-2.995
X4.889Y-4.2921
X4.89Y-4.6216
X4.89Y-4.8227
X4.89Y-5.6773
X4.9Y-4.72
X4.925Y-3.805
X4.96Y-3.12
X4.965Y-5.27
X4.9748Y-4.5548
X5.0185Y-4.6
X5.02Y-4.72
X5.035Y-5.31
X5.074Y-3.7873
X5.116Y-3.2078
X5.116Y-4.2911
X5.116Y-4.7083
X5.116Y-5.764
X5.135Y-3.865
X5.16Y-3.7089
X5.16Y-3.78
X5.21Y-3.125
X5.2234Y-2.7231
X5.2873Y-5.2319
X5.3288Y-5.2175
X5.3735Y-3.7303
X5.415Y-2.01
X5.515Y-2.775
T5
X4.95Y-2.065
X4.95Y-2.165
X4.95Y-2.265
X4.95Y-2.365
X4.95Y-2.465
X5.05Y-2.065
X5.05Y-2.165
X5.05Y-2.265
X5.05Y-2.365
X5.05Y-2.465
T2
G00X5.3217Y-3.9437
M15
G01X5.2783Y-3.9437
M16
G05
G00X5.2783Y-3.0563
M15
G01X5.3217Y-3.0563
M16
G05
G00X4.6783Y-3.0563
M15
G01X4.7217Y-3.0563
M16
G05
G00X4.6783Y-2.0563
M15
G01X4.7217Y-2.0563
M16
G05
G00X4.6783Y-5.0563
M15
G01X4.7217Y-5.0563
M16
G05
G00X5.2783Y-4.0563
M15
G01X5.3217Y-4.0563
M16
G05
G00X4.6783Y-4.0563
M15
G01X4.7217Y-4.0563
M16
G05
G00X5.3217Y-5.9437
M15
G01X5.2783Y-5.9437
M16
G05
G00X4.7217Y-2.9437
M15
G01X4.6783Y-2.9437
M16
G05
G00X5.3217Y-4.9437
M15
G01X5.2783Y-4.9437
M16
G05
G00X5.3217Y-2.9437
M15
G01X5.2783Y-2.9437
M16
G05
G00X4.7217Y-5.9437
M15
G01X4.6783Y-5.9437
M16
G05
G00X5.2783Y-2.0563
M15
G01X5.3217Y-2.0563
M16
G05
G00X5.2783Y-5.0563
M15
G01X5.3217Y-5.0563
M16
G05
G00X4.7217Y-3.9437
M15
G01X4.6783Y-3.9437
M16
G05
G00X4.7217Y-4.9437
M15
G01X4.6783Y-4.9437
M16
G05
T3
G00X5.3197Y-2.6169
M15
G01X5.2803Y-2.6169
M16
G05
G00X4.7197Y-5.6169
M15
G01X4.6803Y-5.6169
M16
G05
G00X5.2803Y-2.3831
M15
G01X5.3197Y-2.3831
M16
G05
G00X5.2803Y-5.3831
M15
G01X5.3197Y-5.3831
M16
G05
G00X4.7197Y-3.6169
M15
G01X4.6803Y-3.6169
M16
G05
G00X4.7197Y-4.6169
M15
G01X4.6803Y-4.6169
M16
G05
G00X5.3197Y-3.6169
M15
G01X5.2803Y-3.6169
M16
G05
G00X5.2803Y-3.3831
M15
G01X5.3197Y-3.3831
M16
G05
G00X4.6803Y-3.3831
M15
G01X4.7197Y-3.3831
M16
G05
G00X4.6803Y-2.3831
M15
G01X4.7197Y-2.3831
M16
G05
G00X4.6803Y-5.3831
M15
G01X4.7197Y-5.3831
M16
G05
G00X5.2803Y-4.3831
M15
G01X5.3197Y-4.3831
M16
G05
G00X4.6803Y-4.3831
M15
G01X4.7197Y-4.3831
M16
G05
G00X5.3197Y-5.6169
M15
G01X5.2803Y-5.6169
M16
G05
G00X4.7197Y-2.6169
M15
G01X4.6803Y-2.6169
M16
G05
G00X5.3197Y-4.6169
M15
G01X5.2803Y-4.6169
M16
G05
T4
G00X5.3098Y-4.5
M15
G01X5.2902Y-4.5
M16
G05
G00X5.3098Y-2.5
M15
G01X5.2902Y-2.5
M16
G05
G00X4.7098Y-5.5
M15
G01X4.6902Y-5.5
M16
G05
G00X5.2902Y-2.5
M15
G01X5.3098Y-2.5
M16
G05
G00X5.2902Y-5.5
M15
G01X5.3098Y-5.5
M16
G05
G00X4.7098Y-3.5
M15
G01X4.6902Y-3.5
M16
G05
G00X4.7098Y-4.5
M15
G01X4.6902Y-4.5
M16
G05
G00X5.3098Y-3.5
M15
G01X5.2902Y-3.5
M16
G05
G00X5.2902Y-3.5
M15
G01X5.3098Y-3.5
M16
G05
G00X4.6902Y-3.5
M15
G01X4.7098Y-3.5
M16
G05
G00X4.6902Y-2.5
M15
G01X4.7098Y-2.5
M16
G05
G00X4.6902Y-5.5
M15
G01X4.7098Y-5.5
M16
G05
G00X5.2902Y-4.5
M15
G01X5.3098Y-4.5
M16
G05
G00X4.6902Y-4.5
M15
G01X4.7098Y-4.5
M16
G05
G00X5.3098Y-5.5
M15
G01X5.2902Y-5.5
M16
G05
G00X4.7098Y-2.5
M15
G01X4.6902Y-2.5
M16
G05
T0
M30
