G04 #@! TF.GenerationSoftware,KiCad,Pcbnew,5.1.4-e60b266~84~ubuntu18.04.1*
G04 #@! TF.CreationDate,2019-10-28T13:22:00+08:00*
G04 #@! TF.ProjectId,Lines,4c696e65-732e-46b6-9963-61645f706362,rev?*
G04 #@! TF.SameCoordinates,Original*
G04 #@! TF.FileFunction,Legend,Bot*
G04 #@! TF.FilePolarity,Positive*
%FSLAX46Y46*%
G04 Gerber Fmt 4.6, Leading zero omitted, Abs format (unit mm)*
G04 Created by KiCad (PCBNEW 5.1.4-e60b266~84~ubuntu18.04.1) date 2019-10-28 13:22:00*
%MOMM*%
%LPD*%
G04 APERTURE LIST*
%ADD10C,0.150000*%
%ADD11C,0.250000*%
%ADD12C,0.200000*%
%ADD13C,0.120000*%
G04 APERTURE END LIST*
D10*
X140279380Y-76922476D02*
X139803190Y-76589142D01*
X140279380Y-76351047D02*
X139279380Y-76351047D01*
X139279380Y-76732000D01*
X139327000Y-76827238D01*
X139374619Y-76874857D01*
X139469857Y-76922476D01*
X139612714Y-76922476D01*
X139707952Y-76874857D01*
X139755571Y-76827238D01*
X139803190Y-76732000D01*
X139803190Y-76351047D01*
X140231761Y-77732000D02*
X140279380Y-77636761D01*
X140279380Y-77446285D01*
X140231761Y-77351047D01*
X140136523Y-77303428D01*
X139755571Y-77303428D01*
X139660333Y-77351047D01*
X139612714Y-77446285D01*
X139612714Y-77636761D01*
X139660333Y-77732000D01*
X139755571Y-77779619D01*
X139850809Y-77779619D01*
X139946047Y-77303428D01*
X139612714Y-78112952D02*
X140279380Y-78351047D01*
X139612714Y-78589142D01*
X139993666Y-79684380D02*
X139993666Y-80160571D01*
X140279380Y-79589142D02*
X139279380Y-79922476D01*
X140279380Y-80255809D01*
X140279380Y-140057952D02*
X139279380Y-140057952D01*
X139993666Y-140391285D01*
X139279380Y-140724619D01*
X140279380Y-140724619D01*
X140279380Y-141629380D02*
X139755571Y-141629380D01*
X139660333Y-141581761D01*
X139612714Y-141486523D01*
X139612714Y-141296047D01*
X139660333Y-141200809D01*
X140231761Y-141629380D02*
X140279380Y-141534142D01*
X140279380Y-141296047D01*
X140231761Y-141200809D01*
X140136523Y-141153190D01*
X140041285Y-141153190D01*
X139946047Y-141200809D01*
X139898428Y-141296047D01*
X139898428Y-141534142D01*
X139850809Y-141629380D01*
X140279380Y-142105571D02*
X139612714Y-142105571D01*
X139803190Y-142105571D02*
X139707952Y-142153190D01*
X139660333Y-142200809D01*
X139612714Y-142296047D01*
X139612714Y-142391285D01*
X140279380Y-143153190D02*
X139755571Y-143153190D01*
X139660333Y-143105571D01*
X139612714Y-143010333D01*
X139612714Y-142819857D01*
X139660333Y-142724619D01*
X140231761Y-143153190D02*
X140279380Y-143057952D01*
X140279380Y-142819857D01*
X140231761Y-142724619D01*
X140136523Y-142677000D01*
X140041285Y-142677000D01*
X139946047Y-142724619D01*
X139898428Y-142819857D01*
X139898428Y-143057952D01*
X139850809Y-143153190D01*
X139612714Y-143629380D02*
X140279380Y-143629380D01*
X139707952Y-143629380D02*
X139660333Y-143677000D01*
X139612714Y-143772238D01*
X139612714Y-143915095D01*
X139660333Y-144010333D01*
X139755571Y-144057952D01*
X140279380Y-144057952D01*
X139612714Y-144962714D02*
X140422238Y-144962714D01*
X140517476Y-144915095D01*
X140565095Y-144867476D01*
X140612714Y-144772238D01*
X140612714Y-144629380D01*
X140565095Y-144534142D01*
X140231761Y-144962714D02*
X140279380Y-144867476D01*
X140279380Y-144677000D01*
X140231761Y-144581761D01*
X140184142Y-144534142D01*
X140088904Y-144486523D01*
X139803190Y-144486523D01*
X139707952Y-144534142D01*
X139660333Y-144581761D01*
X139612714Y-144677000D01*
X139612714Y-144867476D01*
X139660333Y-144962714D01*
X140279380Y-145438904D02*
X139612714Y-145438904D01*
X139279380Y-145438904D02*
X139327000Y-145391285D01*
X139374619Y-145438904D01*
X139327000Y-145486523D01*
X139279380Y-145438904D01*
X139374619Y-145438904D01*
X140231761Y-145867476D02*
X140279380Y-145962714D01*
X140279380Y-146153190D01*
X140231761Y-146248428D01*
X140136523Y-146296047D01*
X140088904Y-146296047D01*
X139993666Y-146248428D01*
X139946047Y-146153190D01*
X139946047Y-146010333D01*
X139898428Y-145915095D01*
X139803190Y-145867476D01*
X139755571Y-145867476D01*
X139660333Y-145915095D01*
X139612714Y-146010333D01*
X139612714Y-146153190D01*
X139660333Y-146248428D01*
X139612714Y-146581761D02*
X139612714Y-146962714D01*
X139279380Y-146724619D02*
X140136523Y-146724619D01*
X140231761Y-146772238D01*
X140279380Y-146867476D01*
X140279380Y-146962714D01*
X140279380Y-147438904D02*
X140231761Y-147343666D01*
X140184142Y-147296047D01*
X140088904Y-147248428D01*
X139803190Y-147248428D01*
X139707952Y-147296047D01*
X139660333Y-147343666D01*
X139612714Y-147438904D01*
X139612714Y-147581761D01*
X139660333Y-147677000D01*
X139707952Y-147724619D01*
X139803190Y-147772238D01*
X140088904Y-147772238D01*
X140184142Y-147724619D01*
X140231761Y-147677000D01*
X140279380Y-147581761D01*
X140279380Y-147438904D01*
X139374619Y-148915095D02*
X139327000Y-148962714D01*
X139279380Y-149057952D01*
X139279380Y-149296047D01*
X139327000Y-149391285D01*
X139374619Y-149438904D01*
X139469857Y-149486523D01*
X139565095Y-149486523D01*
X139707952Y-149438904D01*
X140279380Y-148867476D01*
X140279380Y-149486523D01*
X139279380Y-150105571D02*
X139279380Y-150200809D01*
X139327000Y-150296047D01*
X139374619Y-150343666D01*
X139469857Y-150391285D01*
X139660333Y-150438904D01*
X139898428Y-150438904D01*
X140088904Y-150391285D01*
X140184142Y-150343666D01*
X140231761Y-150296047D01*
X140279380Y-150200809D01*
X140279380Y-150105571D01*
X140231761Y-150010333D01*
X140184142Y-149962714D01*
X140088904Y-149915095D01*
X139898428Y-149867476D01*
X139660333Y-149867476D01*
X139469857Y-149915095D01*
X139374619Y-149962714D01*
X139327000Y-150010333D01*
X139279380Y-150105571D01*
X140279380Y-151391285D02*
X140279380Y-150819857D01*
X140279380Y-151105571D02*
X139279380Y-151105571D01*
X139422238Y-151010333D01*
X139517476Y-150915095D01*
X139565095Y-150819857D01*
X140279380Y-151867476D02*
X140279380Y-152057952D01*
X140231761Y-152153190D01*
X140184142Y-152200809D01*
X140041285Y-152296047D01*
X139850809Y-152343666D01*
X139469857Y-152343666D01*
X139374619Y-152296047D01*
X139327000Y-152248428D01*
X139279380Y-152153190D01*
X139279380Y-151962714D01*
X139327000Y-151867476D01*
X139374619Y-151819857D01*
X139469857Y-151772238D01*
X139707952Y-151772238D01*
X139803190Y-151819857D01*
X139850809Y-151867476D01*
X139898428Y-151962714D01*
X139898428Y-152153190D01*
X139850809Y-152248428D01*
X139803190Y-152296047D01*
X139707952Y-152343666D01*
D11*
X116673142Y-134700285D02*
X116673142Y-131843142D01*
X113673142Y-131843142D01*
X116673142Y-136700285D02*
X114673142Y-136700285D01*
X113673142Y-136700285D02*
X113816000Y-136414571D01*
X113958857Y-136700285D01*
X113816000Y-136986000D01*
X113673142Y-136700285D01*
X113958857Y-136700285D01*
X114673142Y-139557428D02*
X116673142Y-139557428D01*
X114958857Y-139557428D02*
X114816000Y-139843142D01*
X114673142Y-140414571D01*
X114673142Y-141271714D01*
X114816000Y-141843142D01*
X115101714Y-142128857D01*
X116673142Y-142128857D01*
X116530285Y-147271714D02*
X116673142Y-146700285D01*
X116673142Y-145557428D01*
X116530285Y-144986000D01*
X116244571Y-144700285D01*
X115101714Y-144700285D01*
X114816000Y-144986000D01*
X114673142Y-145557428D01*
X114673142Y-146700285D01*
X114816000Y-147271714D01*
X115101714Y-147557428D01*
X115387428Y-147557428D01*
X115673142Y-144700285D01*
X116530285Y-149843142D02*
X116673142Y-150414571D01*
X116673142Y-151557428D01*
X116530285Y-152128857D01*
X116244571Y-152414571D01*
X116101714Y-152414571D01*
X115816000Y-152128857D01*
X115673142Y-151557428D01*
X115673142Y-150700285D01*
X115530285Y-150128857D01*
X115244571Y-149843142D01*
X115101714Y-149843142D01*
X114816000Y-150128857D01*
X114673142Y-150700285D01*
X114673142Y-151557428D01*
X114816000Y-152128857D01*
D10*
X129015904Y-50236428D02*
X128254000Y-50236428D01*
X128634952Y-50617380D02*
X128634952Y-49855476D01*
X127254000Y-50617380D02*
X127825428Y-50617380D01*
X127539714Y-50617380D02*
X127539714Y-49617380D01*
X127634952Y-49760238D01*
X127730190Y-49855476D01*
X127825428Y-49903095D01*
X126873047Y-49712619D02*
X126825428Y-49665000D01*
X126730190Y-49617380D01*
X126492095Y-49617380D01*
X126396857Y-49665000D01*
X126349238Y-49712619D01*
X126301619Y-49807857D01*
X126301619Y-49903095D01*
X126349238Y-50045952D01*
X126920666Y-50617380D01*
X126301619Y-50617380D01*
X126015904Y-49617380D02*
X125682571Y-50617380D01*
X125349238Y-49617380D01*
X129142904Y-66111428D02*
X128381000Y-66111428D01*
X127381000Y-66492380D02*
X127952428Y-66492380D01*
X127666714Y-66492380D02*
X127666714Y-65492380D01*
X127761952Y-65635238D01*
X127857190Y-65730476D01*
X127952428Y-65778095D01*
X127000047Y-65587619D02*
X126952428Y-65540000D01*
X126857190Y-65492380D01*
X126619095Y-65492380D01*
X126523857Y-65540000D01*
X126476238Y-65587619D01*
X126428619Y-65682857D01*
X126428619Y-65778095D01*
X126476238Y-65920952D01*
X127047666Y-66492380D01*
X126428619Y-66492380D01*
X126142904Y-65492380D02*
X125809571Y-66492380D01*
X125476238Y-65492380D01*
D12*
X129540000Y-64897000D02*
X124460000Y-64897000D01*
D13*
X124400000Y-63941000D02*
X125730000Y-63941000D01*
X124400000Y-62611000D02*
X124400000Y-63941000D01*
X127000000Y-63941000D02*
X129600000Y-63941000D01*
X127000000Y-61341000D02*
X127000000Y-63941000D01*
X124400000Y-61341000D02*
X127000000Y-61341000D01*
X129600000Y-63941000D02*
X129600000Y-51121000D01*
X124400000Y-61341000D02*
X124400000Y-51121000D01*
X124400000Y-51121000D02*
X129600000Y-51121000D01*
D10*
X124500000Y-131025000D02*
X124500000Y-129675000D01*
X129625000Y-131025000D02*
X129625000Y-135675000D01*
X124375000Y-131025000D02*
X124375000Y-135675000D01*
X129625000Y-131025000D02*
X129400000Y-131025000D01*
X129625000Y-135675000D02*
X129400000Y-135675000D01*
X124375000Y-135675000D02*
X124600000Y-135675000D01*
X124375000Y-131025000D02*
X124500000Y-131025000D01*
X124500000Y-92925000D02*
X124500000Y-91575000D01*
X129625000Y-92925000D02*
X129625000Y-97575000D01*
X124375000Y-92925000D02*
X124375000Y-97575000D01*
X129625000Y-92925000D02*
X129400000Y-92925000D01*
X129625000Y-97575000D02*
X129400000Y-97575000D01*
X124375000Y-97575000D02*
X124600000Y-97575000D01*
X124375000Y-92925000D02*
X124500000Y-92925000D01*
D13*
X139321000Y-52415221D02*
X139321000Y-52740779D01*
X138301000Y-52415221D02*
X138301000Y-52740779D01*
X134782779Y-147512000D02*
X134457221Y-147512000D01*
X134782779Y-146492000D02*
X134457221Y-146492000D01*
X134782779Y-134749000D02*
X134457221Y-134749000D01*
X134782779Y-133729000D02*
X134457221Y-133729000D01*
X125156779Y-139956000D02*
X124831221Y-139956000D01*
X125156779Y-138936000D02*
X124831221Y-138936000D01*
X128996221Y-138936000D02*
X129321779Y-138936000D01*
X128996221Y-139956000D02*
X129321779Y-139956000D01*
X124831221Y-144778000D02*
X125156779Y-144778000D01*
X124831221Y-145798000D02*
X125156779Y-145798000D01*
X129321779Y-145798000D02*
X128996221Y-145798000D01*
X129321779Y-144778000D02*
X128996221Y-144778000D01*
X125156779Y-148719000D02*
X124831221Y-148719000D01*
X125156779Y-147699000D02*
X124831221Y-147699000D01*
X128996221Y-147699000D02*
X129321779Y-147699000D01*
X128996221Y-148719000D02*
X129321779Y-148719000D01*
X119606779Y-147512000D02*
X119281221Y-147512000D01*
X119606779Y-146492000D02*
X119281221Y-146492000D01*
X119606779Y-134749000D02*
X119281221Y-134749000D01*
X119606779Y-133729000D02*
X119281221Y-133729000D01*
X134782779Y-122112000D02*
X134457221Y-122112000D01*
X134782779Y-121092000D02*
X134457221Y-121092000D01*
X134782779Y-107508000D02*
X134457221Y-107508000D01*
X134782779Y-106488000D02*
X134457221Y-106488000D01*
X128996221Y-126744000D02*
X129321779Y-126744000D01*
X128996221Y-127764000D02*
X129321779Y-127764000D01*
X125156779Y-127764000D02*
X124831221Y-127764000D01*
X125156779Y-126744000D02*
X124831221Y-126744000D01*
X129321779Y-121922000D02*
X128996221Y-121922000D01*
X129321779Y-120902000D02*
X128996221Y-120902000D01*
X124831221Y-120902000D02*
X125156779Y-120902000D01*
X124831221Y-121922000D02*
X125156779Y-121922000D01*
X128996221Y-117981000D02*
X129321779Y-117981000D01*
X128996221Y-119001000D02*
X129321779Y-119001000D01*
X125156779Y-119001000D02*
X124831221Y-119001000D01*
X125156779Y-117981000D02*
X124831221Y-117981000D01*
X119606779Y-122112000D02*
X119281221Y-122112000D01*
X119606779Y-121092000D02*
X119281221Y-121092000D01*
X119281221Y-106488000D02*
X119606779Y-106488000D01*
X119281221Y-107508000D02*
X119606779Y-107508000D01*
X134782779Y-98300000D02*
X134457221Y-98300000D01*
X134782779Y-97280000D02*
X134457221Y-97280000D01*
X134782779Y-82044000D02*
X134457221Y-82044000D01*
X134782779Y-81024000D02*
X134457221Y-81024000D01*
X125130779Y-101856000D02*
X124805221Y-101856000D01*
X125130779Y-100836000D02*
X124805221Y-100836000D01*
X128996221Y-100836000D02*
X129321779Y-100836000D01*
X128996221Y-101856000D02*
X129321779Y-101856000D01*
X124805221Y-106678000D02*
X125130779Y-106678000D01*
X124805221Y-107698000D02*
X125130779Y-107698000D01*
X129321779Y-107698000D02*
X128996221Y-107698000D01*
X129321779Y-106678000D02*
X128996221Y-106678000D01*
X125130779Y-110619000D02*
X124805221Y-110619000D01*
X125130779Y-109599000D02*
X124805221Y-109599000D01*
X128996221Y-109599000D02*
X129321779Y-109599000D01*
X128996221Y-110619000D02*
X129321779Y-110619000D01*
X119606779Y-98300000D02*
X119281221Y-98300000D01*
X119606779Y-97280000D02*
X119281221Y-97280000D01*
X119606779Y-82044000D02*
X119281221Y-82044000D01*
X119606779Y-81024000D02*
X119281221Y-81024000D01*
X129321779Y-77980000D02*
X128996221Y-77980000D01*
X129321779Y-76960000D02*
X128996221Y-76960000D01*
X134457221Y-55751000D02*
X134782779Y-55751000D01*
X134457221Y-56771000D02*
X134782779Y-56771000D01*
X128996221Y-88644000D02*
X129321779Y-88644000D01*
X128996221Y-89664000D02*
X129321779Y-89664000D01*
X125130779Y-89664000D02*
X124805221Y-89664000D01*
X125130779Y-88644000D02*
X124805221Y-88644000D01*
X129321779Y-83822000D02*
X128996221Y-83822000D01*
X129321779Y-82802000D02*
X128996221Y-82802000D01*
X124805221Y-82802000D02*
X125130779Y-82802000D01*
X124805221Y-83822000D02*
X125130779Y-83822000D01*
X128996221Y-79881000D02*
X129321779Y-79881000D01*
X128996221Y-80901000D02*
X129321779Y-80901000D01*
X125130779Y-80901000D02*
X124805221Y-80901000D01*
X125130779Y-79881000D02*
X124805221Y-79881000D01*
X125130779Y-77980000D02*
X124805221Y-77980000D01*
X125130779Y-76960000D02*
X124805221Y-76960000D01*
X119606779Y-56771000D02*
X119281221Y-56771000D01*
X119606779Y-55751000D02*
X119281221Y-55751000D01*
X138301000Y-65186779D02*
X138301000Y-64861221D01*
X139321000Y-65186779D02*
X139321000Y-64861221D01*
X114933000Y-65186779D02*
X114933000Y-64861221D01*
X115953000Y-65186779D02*
X115953000Y-64861221D01*
X116128000Y-51147000D02*
X116128000Y-53632000D01*
X114758000Y-51147000D02*
X116128000Y-51147000D01*
X114758000Y-53632000D02*
X114758000Y-51147000D01*
X139811000Y-57617000D02*
X137811000Y-57617000D01*
X139811000Y-57617000D02*
X139811000Y-60817000D01*
X137811000Y-60817000D02*
X137811000Y-57617000D01*
X114443000Y-62017000D02*
X116443000Y-62017000D01*
X114443000Y-62017000D02*
X114443000Y-58817000D01*
X116443000Y-58817000D02*
X116443000Y-62017000D01*
X131561500Y-72609500D02*
X131561500Y-71984500D01*
X131249000Y-72297000D02*
X131874000Y-72297000D01*
X132114000Y-68916437D02*
X133178437Y-67852000D01*
X132114000Y-72307563D02*
X133178437Y-73372000D01*
X132114000Y-72307563D02*
X132114000Y-71672000D01*
X132114000Y-68916437D02*
X132114000Y-69552000D01*
X133178437Y-67852000D02*
X137634000Y-67852000D01*
X133178437Y-73372000D02*
X137634000Y-73372000D01*
X137634000Y-73372000D02*
X137634000Y-71672000D01*
X137634000Y-67852000D02*
X137634000Y-69552000D01*
X116067500Y-72609500D02*
X116067500Y-71984500D01*
X115755000Y-72297000D02*
X116380000Y-72297000D01*
X116620000Y-68916437D02*
X117684437Y-67852000D01*
X116620000Y-72307563D02*
X117684437Y-73372000D01*
X116620000Y-72307563D02*
X116620000Y-71672000D01*
X116620000Y-68916437D02*
X116620000Y-69552000D01*
X117684437Y-67852000D02*
X122140000Y-67852000D01*
X117684437Y-73372000D02*
X122140000Y-73372000D01*
X122140000Y-73372000D02*
X122140000Y-71672000D01*
X122140000Y-67852000D02*
X122140000Y-69552000D01*
X124831221Y-141857000D02*
X125156779Y-141857000D01*
X124831221Y-142877000D02*
X125156779Y-142877000D01*
X129321779Y-142877000D02*
X128996221Y-142877000D01*
X129321779Y-141857000D02*
X128996221Y-141857000D01*
X134782779Y-131955000D02*
X134457221Y-131955000D01*
X134782779Y-130935000D02*
X134457221Y-130935000D01*
X119542779Y-131955000D02*
X119217221Y-131955000D01*
X119542779Y-130935000D02*
X119217221Y-130935000D01*
X129321779Y-124843000D02*
X128996221Y-124843000D01*
X129321779Y-123823000D02*
X128996221Y-123823000D01*
X124831221Y-123823000D02*
X125156779Y-123823000D01*
X124831221Y-124843000D02*
X125156779Y-124843000D01*
X124805221Y-103757000D02*
X125130779Y-103757000D01*
X124805221Y-104777000D02*
X125130779Y-104777000D01*
X129321779Y-104777000D02*
X128996221Y-104777000D01*
X129321779Y-103757000D02*
X128996221Y-103757000D01*
X134782779Y-95506000D02*
X134457221Y-95506000D01*
X134782779Y-94486000D02*
X134457221Y-94486000D01*
X119542779Y-95506000D02*
X119217221Y-95506000D01*
X119542779Y-94486000D02*
X119217221Y-94486000D01*
X129321779Y-86743000D02*
X128996221Y-86743000D01*
X129321779Y-85723000D02*
X128996221Y-85723000D01*
X124805221Y-85723000D02*
X125130779Y-85723000D01*
X124805221Y-86743000D02*
X125130779Y-86743000D01*
D10*
X122769380Y-51641476D02*
X123483666Y-51641476D01*
X123626523Y-51593857D01*
X123721761Y-51498619D01*
X123769380Y-51355761D01*
X123769380Y-51260523D01*
X123769380Y-52641476D02*
X123769380Y-52070047D01*
X123769380Y-52355761D02*
X122769380Y-52355761D01*
X122912238Y-52260523D01*
X123007476Y-52165285D01*
X123055095Y-52070047D01*
X122769380Y-52974809D02*
X122769380Y-53641476D01*
X123769380Y-53212904D01*
X122902380Y-132588095D02*
X123711904Y-132588095D01*
X123807142Y-132635714D01*
X123854761Y-132683333D01*
X123902380Y-132778571D01*
X123902380Y-132969047D01*
X123854761Y-133064285D01*
X123807142Y-133111904D01*
X123711904Y-133159523D01*
X122902380Y-133159523D01*
X122997619Y-133588095D02*
X122950000Y-133635714D01*
X122902380Y-133730952D01*
X122902380Y-133969047D01*
X122950000Y-134064285D01*
X122997619Y-134111904D01*
X123092857Y-134159523D01*
X123188095Y-134159523D01*
X123330952Y-134111904D01*
X123902380Y-133540476D01*
X123902380Y-134159523D01*
X122902380Y-94488095D02*
X123711904Y-94488095D01*
X123807142Y-94535714D01*
X123854761Y-94583333D01*
X123902380Y-94678571D01*
X123902380Y-94869047D01*
X123854761Y-94964285D01*
X123807142Y-95011904D01*
X123711904Y-95059523D01*
X122902380Y-95059523D01*
X123902380Y-96059523D02*
X123902380Y-95488095D01*
X123902380Y-95773809D02*
X122902380Y-95773809D01*
X123045238Y-95678571D01*
X123140476Y-95583333D01*
X123188095Y-95488095D01*
X137833380Y-51935142D02*
X137357190Y-51601809D01*
X137833380Y-51363714D02*
X136833380Y-51363714D01*
X136833380Y-51744666D01*
X136881000Y-51839904D01*
X136928619Y-51887523D01*
X137023857Y-51935142D01*
X137166714Y-51935142D01*
X137261952Y-51887523D01*
X137309571Y-51839904D01*
X137357190Y-51744666D01*
X137357190Y-51363714D01*
X137166714Y-52792285D02*
X137833380Y-52792285D01*
X136785761Y-52554190D02*
X137500047Y-52316095D01*
X137500047Y-52935142D01*
X137833380Y-53839904D02*
X137833380Y-53268476D01*
X137833380Y-53554190D02*
X136833380Y-53554190D01*
X136976238Y-53458952D01*
X137071476Y-53363714D01*
X137119095Y-53268476D01*
X135262857Y-146024380D02*
X135596190Y-145548190D01*
X135834285Y-146024380D02*
X135834285Y-145024380D01*
X135453333Y-145024380D01*
X135358095Y-145072000D01*
X135310476Y-145119619D01*
X135262857Y-145214857D01*
X135262857Y-145357714D01*
X135310476Y-145452952D01*
X135358095Y-145500571D01*
X135453333Y-145548190D01*
X135834285Y-145548190D01*
X134405714Y-145357714D02*
X134405714Y-146024380D01*
X134643809Y-144976761D02*
X134881904Y-145691047D01*
X134262857Y-145691047D01*
X133691428Y-145024380D02*
X133596190Y-145024380D01*
X133500952Y-145072000D01*
X133453333Y-145119619D01*
X133405714Y-145214857D01*
X133358095Y-145405333D01*
X133358095Y-145643428D01*
X133405714Y-145833904D01*
X133453333Y-145929142D01*
X133500952Y-145976761D01*
X133596190Y-146024380D01*
X133691428Y-146024380D01*
X133786666Y-145976761D01*
X133834285Y-145929142D01*
X133881904Y-145833904D01*
X133929523Y-145643428D01*
X133929523Y-145405333D01*
X133881904Y-145214857D01*
X133834285Y-145119619D01*
X133786666Y-145072000D01*
X133691428Y-145024380D01*
X135262857Y-133261380D02*
X135596190Y-132785190D01*
X135834285Y-133261380D02*
X135834285Y-132261380D01*
X135453333Y-132261380D01*
X135358095Y-132309000D01*
X135310476Y-132356619D01*
X135262857Y-132451857D01*
X135262857Y-132594714D01*
X135310476Y-132689952D01*
X135358095Y-132737571D01*
X135453333Y-132785190D01*
X135834285Y-132785190D01*
X134929523Y-132261380D02*
X134310476Y-132261380D01*
X134643809Y-132642333D01*
X134500952Y-132642333D01*
X134405714Y-132689952D01*
X134358095Y-132737571D01*
X134310476Y-132832809D01*
X134310476Y-133070904D01*
X134358095Y-133166142D01*
X134405714Y-133213761D01*
X134500952Y-133261380D01*
X134786666Y-133261380D01*
X134881904Y-133213761D01*
X134929523Y-133166142D01*
X133834285Y-133261380D02*
X133643809Y-133261380D01*
X133548571Y-133213761D01*
X133500952Y-133166142D01*
X133405714Y-133023285D01*
X133358095Y-132832809D01*
X133358095Y-132451857D01*
X133405714Y-132356619D01*
X133453333Y-132309000D01*
X133548571Y-132261380D01*
X133739047Y-132261380D01*
X133834285Y-132309000D01*
X133881904Y-132356619D01*
X133929523Y-132451857D01*
X133929523Y-132689952D01*
X133881904Y-132785190D01*
X133834285Y-132832809D01*
X133739047Y-132880428D01*
X133548571Y-132880428D01*
X133453333Y-132832809D01*
X133405714Y-132785190D01*
X133358095Y-132689952D01*
X125636857Y-138468380D02*
X125970190Y-137992190D01*
X126208285Y-138468380D02*
X126208285Y-137468380D01*
X125827333Y-137468380D01*
X125732095Y-137516000D01*
X125684476Y-137563619D01*
X125636857Y-137658857D01*
X125636857Y-137801714D01*
X125684476Y-137896952D01*
X125732095Y-137944571D01*
X125827333Y-137992190D01*
X126208285Y-137992190D01*
X125303523Y-137468380D02*
X124684476Y-137468380D01*
X125017809Y-137849333D01*
X124874952Y-137849333D01*
X124779714Y-137896952D01*
X124732095Y-137944571D01*
X124684476Y-138039809D01*
X124684476Y-138277904D01*
X124732095Y-138373142D01*
X124779714Y-138420761D01*
X124874952Y-138468380D01*
X125160666Y-138468380D01*
X125255904Y-138420761D01*
X125303523Y-138373142D01*
X124113047Y-137896952D02*
X124208285Y-137849333D01*
X124255904Y-137801714D01*
X124303523Y-137706476D01*
X124303523Y-137658857D01*
X124255904Y-137563619D01*
X124208285Y-137516000D01*
X124113047Y-137468380D01*
X123922571Y-137468380D01*
X123827333Y-137516000D01*
X123779714Y-137563619D01*
X123732095Y-137658857D01*
X123732095Y-137706476D01*
X123779714Y-137801714D01*
X123827333Y-137849333D01*
X123922571Y-137896952D01*
X124113047Y-137896952D01*
X124208285Y-137944571D01*
X124255904Y-137992190D01*
X124303523Y-138087428D01*
X124303523Y-138277904D01*
X124255904Y-138373142D01*
X124208285Y-138420761D01*
X124113047Y-138468380D01*
X123922571Y-138468380D01*
X123827333Y-138420761D01*
X123779714Y-138373142D01*
X123732095Y-138277904D01*
X123732095Y-138087428D01*
X123779714Y-137992190D01*
X123827333Y-137944571D01*
X123922571Y-137896952D01*
X129801857Y-138501380D02*
X130135190Y-138025190D01*
X130373285Y-138501380D02*
X130373285Y-137501380D01*
X129992333Y-137501380D01*
X129897095Y-137549000D01*
X129849476Y-137596619D01*
X129801857Y-137691857D01*
X129801857Y-137834714D01*
X129849476Y-137929952D01*
X129897095Y-137977571D01*
X129992333Y-138025190D01*
X130373285Y-138025190D01*
X129468523Y-137501380D02*
X128849476Y-137501380D01*
X129182809Y-137882333D01*
X129039952Y-137882333D01*
X128944714Y-137929952D01*
X128897095Y-137977571D01*
X128849476Y-138072809D01*
X128849476Y-138310904D01*
X128897095Y-138406142D01*
X128944714Y-138453761D01*
X129039952Y-138501380D01*
X129325666Y-138501380D01*
X129420904Y-138453761D01*
X129468523Y-138406142D01*
X128516142Y-137501380D02*
X127849476Y-137501380D01*
X128278047Y-138501380D01*
X125636857Y-144343380D02*
X125970190Y-143867190D01*
X126208285Y-144343380D02*
X126208285Y-143343380D01*
X125827333Y-143343380D01*
X125732095Y-143391000D01*
X125684476Y-143438619D01*
X125636857Y-143533857D01*
X125636857Y-143676714D01*
X125684476Y-143771952D01*
X125732095Y-143819571D01*
X125827333Y-143867190D01*
X126208285Y-143867190D01*
X125303523Y-143343380D02*
X124684476Y-143343380D01*
X125017809Y-143724333D01*
X124874952Y-143724333D01*
X124779714Y-143771952D01*
X124732095Y-143819571D01*
X124684476Y-143914809D01*
X124684476Y-144152904D01*
X124732095Y-144248142D01*
X124779714Y-144295761D01*
X124874952Y-144343380D01*
X125160666Y-144343380D01*
X125255904Y-144295761D01*
X125303523Y-144248142D01*
X123827333Y-143343380D02*
X124017809Y-143343380D01*
X124113047Y-143391000D01*
X124160666Y-143438619D01*
X124255904Y-143581476D01*
X124303523Y-143771952D01*
X124303523Y-144152904D01*
X124255904Y-144248142D01*
X124208285Y-144295761D01*
X124113047Y-144343380D01*
X123922571Y-144343380D01*
X123827333Y-144295761D01*
X123779714Y-144248142D01*
X123732095Y-144152904D01*
X123732095Y-143914809D01*
X123779714Y-143819571D01*
X123827333Y-143771952D01*
X123922571Y-143724333D01*
X124113047Y-143724333D01*
X124208285Y-143771952D01*
X124255904Y-143819571D01*
X124303523Y-143914809D01*
X129801857Y-144310380D02*
X130135190Y-143834190D01*
X130373285Y-144310380D02*
X130373285Y-143310380D01*
X129992333Y-143310380D01*
X129897095Y-143358000D01*
X129849476Y-143405619D01*
X129801857Y-143500857D01*
X129801857Y-143643714D01*
X129849476Y-143738952D01*
X129897095Y-143786571D01*
X129992333Y-143834190D01*
X130373285Y-143834190D01*
X129468523Y-143310380D02*
X128849476Y-143310380D01*
X129182809Y-143691333D01*
X129039952Y-143691333D01*
X128944714Y-143738952D01*
X128897095Y-143786571D01*
X128849476Y-143881809D01*
X128849476Y-144119904D01*
X128897095Y-144215142D01*
X128944714Y-144262761D01*
X129039952Y-144310380D01*
X129325666Y-144310380D01*
X129420904Y-144262761D01*
X129468523Y-144215142D01*
X127944714Y-143310380D02*
X128420904Y-143310380D01*
X128468523Y-143786571D01*
X128420904Y-143738952D01*
X128325666Y-143691333D01*
X128087571Y-143691333D01*
X127992333Y-143738952D01*
X127944714Y-143786571D01*
X127897095Y-143881809D01*
X127897095Y-144119904D01*
X127944714Y-144215142D01*
X127992333Y-144262761D01*
X128087571Y-144310380D01*
X128325666Y-144310380D01*
X128420904Y-144262761D01*
X128468523Y-144215142D01*
X125636857Y-147231380D02*
X125970190Y-146755190D01*
X126208285Y-147231380D02*
X126208285Y-146231380D01*
X125827333Y-146231380D01*
X125732095Y-146279000D01*
X125684476Y-146326619D01*
X125636857Y-146421857D01*
X125636857Y-146564714D01*
X125684476Y-146659952D01*
X125732095Y-146707571D01*
X125827333Y-146755190D01*
X126208285Y-146755190D01*
X125303523Y-146231380D02*
X124684476Y-146231380D01*
X125017809Y-146612333D01*
X124874952Y-146612333D01*
X124779714Y-146659952D01*
X124732095Y-146707571D01*
X124684476Y-146802809D01*
X124684476Y-147040904D01*
X124732095Y-147136142D01*
X124779714Y-147183761D01*
X124874952Y-147231380D01*
X125160666Y-147231380D01*
X125255904Y-147183761D01*
X125303523Y-147136142D01*
X123827333Y-146564714D02*
X123827333Y-147231380D01*
X124065428Y-146183761D02*
X124303523Y-146898047D01*
X123684476Y-146898047D01*
X129801857Y-147297380D02*
X130135190Y-146821190D01*
X130373285Y-147297380D02*
X130373285Y-146297380D01*
X129992333Y-146297380D01*
X129897095Y-146345000D01*
X129849476Y-146392619D01*
X129801857Y-146487857D01*
X129801857Y-146630714D01*
X129849476Y-146725952D01*
X129897095Y-146773571D01*
X129992333Y-146821190D01*
X130373285Y-146821190D01*
X129468523Y-146297380D02*
X128849476Y-146297380D01*
X129182809Y-146678333D01*
X129039952Y-146678333D01*
X128944714Y-146725952D01*
X128897095Y-146773571D01*
X128849476Y-146868809D01*
X128849476Y-147106904D01*
X128897095Y-147202142D01*
X128944714Y-147249761D01*
X129039952Y-147297380D01*
X129325666Y-147297380D01*
X129420904Y-147249761D01*
X129468523Y-147202142D01*
X128516142Y-146297380D02*
X127897095Y-146297380D01*
X128230428Y-146678333D01*
X128087571Y-146678333D01*
X127992333Y-146725952D01*
X127944714Y-146773571D01*
X127897095Y-146868809D01*
X127897095Y-147106904D01*
X127944714Y-147202142D01*
X127992333Y-147249761D01*
X128087571Y-147297380D01*
X128373285Y-147297380D01*
X128468523Y-147249761D01*
X128516142Y-147202142D01*
X120086857Y-146024380D02*
X120420190Y-145548190D01*
X120658285Y-146024380D02*
X120658285Y-145024380D01*
X120277333Y-145024380D01*
X120182095Y-145072000D01*
X120134476Y-145119619D01*
X120086857Y-145214857D01*
X120086857Y-145357714D01*
X120134476Y-145452952D01*
X120182095Y-145500571D01*
X120277333Y-145548190D01*
X120658285Y-145548190D01*
X119753523Y-145024380D02*
X119134476Y-145024380D01*
X119467809Y-145405333D01*
X119324952Y-145405333D01*
X119229714Y-145452952D01*
X119182095Y-145500571D01*
X119134476Y-145595809D01*
X119134476Y-145833904D01*
X119182095Y-145929142D01*
X119229714Y-145976761D01*
X119324952Y-146024380D01*
X119610666Y-146024380D01*
X119705904Y-145976761D01*
X119753523Y-145929142D01*
X118753523Y-145119619D02*
X118705904Y-145072000D01*
X118610666Y-145024380D01*
X118372571Y-145024380D01*
X118277333Y-145072000D01*
X118229714Y-145119619D01*
X118182095Y-145214857D01*
X118182095Y-145310095D01*
X118229714Y-145452952D01*
X118801142Y-146024380D01*
X118182095Y-146024380D01*
X120086857Y-133261380D02*
X120420190Y-132785190D01*
X120658285Y-133261380D02*
X120658285Y-132261380D01*
X120277333Y-132261380D01*
X120182095Y-132309000D01*
X120134476Y-132356619D01*
X120086857Y-132451857D01*
X120086857Y-132594714D01*
X120134476Y-132689952D01*
X120182095Y-132737571D01*
X120277333Y-132785190D01*
X120658285Y-132785190D01*
X119753523Y-132261380D02*
X119134476Y-132261380D01*
X119467809Y-132642333D01*
X119324952Y-132642333D01*
X119229714Y-132689952D01*
X119182095Y-132737571D01*
X119134476Y-132832809D01*
X119134476Y-133070904D01*
X119182095Y-133166142D01*
X119229714Y-133213761D01*
X119324952Y-133261380D01*
X119610666Y-133261380D01*
X119705904Y-133213761D01*
X119753523Y-133166142D01*
X118182095Y-133261380D02*
X118753523Y-133261380D01*
X118467809Y-133261380D02*
X118467809Y-132261380D01*
X118563047Y-132404238D01*
X118658285Y-132499476D01*
X118753523Y-132547095D01*
X135262857Y-120624380D02*
X135596190Y-120148190D01*
X135834285Y-120624380D02*
X135834285Y-119624380D01*
X135453333Y-119624380D01*
X135358095Y-119672000D01*
X135310476Y-119719619D01*
X135262857Y-119814857D01*
X135262857Y-119957714D01*
X135310476Y-120052952D01*
X135358095Y-120100571D01*
X135453333Y-120148190D01*
X135834285Y-120148190D01*
X134929523Y-119624380D02*
X134310476Y-119624380D01*
X134643809Y-120005333D01*
X134500952Y-120005333D01*
X134405714Y-120052952D01*
X134358095Y-120100571D01*
X134310476Y-120195809D01*
X134310476Y-120433904D01*
X134358095Y-120529142D01*
X134405714Y-120576761D01*
X134500952Y-120624380D01*
X134786666Y-120624380D01*
X134881904Y-120576761D01*
X134929523Y-120529142D01*
X133691428Y-119624380D02*
X133596190Y-119624380D01*
X133500952Y-119672000D01*
X133453333Y-119719619D01*
X133405714Y-119814857D01*
X133358095Y-120005333D01*
X133358095Y-120243428D01*
X133405714Y-120433904D01*
X133453333Y-120529142D01*
X133500952Y-120576761D01*
X133596190Y-120624380D01*
X133691428Y-120624380D01*
X133786666Y-120576761D01*
X133834285Y-120529142D01*
X133881904Y-120433904D01*
X133929523Y-120243428D01*
X133929523Y-120005333D01*
X133881904Y-119814857D01*
X133834285Y-119719619D01*
X133786666Y-119672000D01*
X133691428Y-119624380D01*
X135262857Y-106020380D02*
X135596190Y-105544190D01*
X135834285Y-106020380D02*
X135834285Y-105020380D01*
X135453333Y-105020380D01*
X135358095Y-105068000D01*
X135310476Y-105115619D01*
X135262857Y-105210857D01*
X135262857Y-105353714D01*
X135310476Y-105448952D01*
X135358095Y-105496571D01*
X135453333Y-105544190D01*
X135834285Y-105544190D01*
X134881904Y-105115619D02*
X134834285Y-105068000D01*
X134739047Y-105020380D01*
X134500952Y-105020380D01*
X134405714Y-105068000D01*
X134358095Y-105115619D01*
X134310476Y-105210857D01*
X134310476Y-105306095D01*
X134358095Y-105448952D01*
X134929523Y-106020380D01*
X134310476Y-106020380D01*
X133834285Y-106020380D02*
X133643809Y-106020380D01*
X133548571Y-105972761D01*
X133500952Y-105925142D01*
X133405714Y-105782285D01*
X133358095Y-105591809D01*
X133358095Y-105210857D01*
X133405714Y-105115619D01*
X133453333Y-105068000D01*
X133548571Y-105020380D01*
X133739047Y-105020380D01*
X133834285Y-105068000D01*
X133881904Y-105115619D01*
X133929523Y-105210857D01*
X133929523Y-105448952D01*
X133881904Y-105544190D01*
X133834285Y-105591809D01*
X133739047Y-105639428D01*
X133548571Y-105639428D01*
X133453333Y-105591809D01*
X133405714Y-105544190D01*
X133358095Y-105448952D01*
X129801857Y-126342380D02*
X130135190Y-125866190D01*
X130373285Y-126342380D02*
X130373285Y-125342380D01*
X129992333Y-125342380D01*
X129897095Y-125390000D01*
X129849476Y-125437619D01*
X129801857Y-125532857D01*
X129801857Y-125675714D01*
X129849476Y-125770952D01*
X129897095Y-125818571D01*
X129992333Y-125866190D01*
X130373285Y-125866190D01*
X129420904Y-125437619D02*
X129373285Y-125390000D01*
X129278047Y-125342380D01*
X129039952Y-125342380D01*
X128944714Y-125390000D01*
X128897095Y-125437619D01*
X128849476Y-125532857D01*
X128849476Y-125628095D01*
X128897095Y-125770952D01*
X129468523Y-126342380D01*
X128849476Y-126342380D01*
X128278047Y-125770952D02*
X128373285Y-125723333D01*
X128420904Y-125675714D01*
X128468523Y-125580476D01*
X128468523Y-125532857D01*
X128420904Y-125437619D01*
X128373285Y-125390000D01*
X128278047Y-125342380D01*
X128087571Y-125342380D01*
X127992333Y-125390000D01*
X127944714Y-125437619D01*
X127897095Y-125532857D01*
X127897095Y-125580476D01*
X127944714Y-125675714D01*
X127992333Y-125723333D01*
X128087571Y-125770952D01*
X128278047Y-125770952D01*
X128373285Y-125818571D01*
X128420904Y-125866190D01*
X128468523Y-125961428D01*
X128468523Y-126151904D01*
X128420904Y-126247142D01*
X128373285Y-126294761D01*
X128278047Y-126342380D01*
X128087571Y-126342380D01*
X127992333Y-126294761D01*
X127944714Y-126247142D01*
X127897095Y-126151904D01*
X127897095Y-125961428D01*
X127944714Y-125866190D01*
X127992333Y-125818571D01*
X128087571Y-125770952D01*
X125636857Y-126276380D02*
X125970190Y-125800190D01*
X126208285Y-126276380D02*
X126208285Y-125276380D01*
X125827333Y-125276380D01*
X125732095Y-125324000D01*
X125684476Y-125371619D01*
X125636857Y-125466857D01*
X125636857Y-125609714D01*
X125684476Y-125704952D01*
X125732095Y-125752571D01*
X125827333Y-125800190D01*
X126208285Y-125800190D01*
X125255904Y-125371619D02*
X125208285Y-125324000D01*
X125113047Y-125276380D01*
X124874952Y-125276380D01*
X124779714Y-125324000D01*
X124732095Y-125371619D01*
X124684476Y-125466857D01*
X124684476Y-125562095D01*
X124732095Y-125704952D01*
X125303523Y-126276380D01*
X124684476Y-126276380D01*
X124351142Y-125276380D02*
X123684476Y-125276380D01*
X124113047Y-126276380D01*
X129801857Y-120434380D02*
X130135190Y-119958190D01*
X130373285Y-120434380D02*
X130373285Y-119434380D01*
X129992333Y-119434380D01*
X129897095Y-119482000D01*
X129849476Y-119529619D01*
X129801857Y-119624857D01*
X129801857Y-119767714D01*
X129849476Y-119862952D01*
X129897095Y-119910571D01*
X129992333Y-119958190D01*
X130373285Y-119958190D01*
X129420904Y-119529619D02*
X129373285Y-119482000D01*
X129278047Y-119434380D01*
X129039952Y-119434380D01*
X128944714Y-119482000D01*
X128897095Y-119529619D01*
X128849476Y-119624857D01*
X128849476Y-119720095D01*
X128897095Y-119862952D01*
X129468523Y-120434380D01*
X128849476Y-120434380D01*
X127992333Y-119434380D02*
X128182809Y-119434380D01*
X128278047Y-119482000D01*
X128325666Y-119529619D01*
X128420904Y-119672476D01*
X128468523Y-119862952D01*
X128468523Y-120243904D01*
X128420904Y-120339142D01*
X128373285Y-120386761D01*
X128278047Y-120434380D01*
X128087571Y-120434380D01*
X127992333Y-120386761D01*
X127944714Y-120339142D01*
X127897095Y-120243904D01*
X127897095Y-120005809D01*
X127944714Y-119910571D01*
X127992333Y-119862952D01*
X128087571Y-119815333D01*
X128278047Y-119815333D01*
X128373285Y-119862952D01*
X128420904Y-119910571D01*
X128468523Y-120005809D01*
X125636857Y-120500380D02*
X125970190Y-120024190D01*
X126208285Y-120500380D02*
X126208285Y-119500380D01*
X125827333Y-119500380D01*
X125732095Y-119548000D01*
X125684476Y-119595619D01*
X125636857Y-119690857D01*
X125636857Y-119833714D01*
X125684476Y-119928952D01*
X125732095Y-119976571D01*
X125827333Y-120024190D01*
X126208285Y-120024190D01*
X125255904Y-119595619D02*
X125208285Y-119548000D01*
X125113047Y-119500380D01*
X124874952Y-119500380D01*
X124779714Y-119548000D01*
X124732095Y-119595619D01*
X124684476Y-119690857D01*
X124684476Y-119786095D01*
X124732095Y-119928952D01*
X125303523Y-120500380D01*
X124684476Y-120500380D01*
X123779714Y-119500380D02*
X124255904Y-119500380D01*
X124303523Y-119976571D01*
X124255904Y-119928952D01*
X124160666Y-119881333D01*
X123922571Y-119881333D01*
X123827333Y-119928952D01*
X123779714Y-119976571D01*
X123732095Y-120071809D01*
X123732095Y-120309904D01*
X123779714Y-120405142D01*
X123827333Y-120452761D01*
X123922571Y-120500380D01*
X124160666Y-120500380D01*
X124255904Y-120452761D01*
X124303523Y-120405142D01*
X129801857Y-117546380D02*
X130135190Y-117070190D01*
X130373285Y-117546380D02*
X130373285Y-116546380D01*
X129992333Y-116546380D01*
X129897095Y-116594000D01*
X129849476Y-116641619D01*
X129801857Y-116736857D01*
X129801857Y-116879714D01*
X129849476Y-116974952D01*
X129897095Y-117022571D01*
X129992333Y-117070190D01*
X130373285Y-117070190D01*
X129420904Y-116641619D02*
X129373285Y-116594000D01*
X129278047Y-116546380D01*
X129039952Y-116546380D01*
X128944714Y-116594000D01*
X128897095Y-116641619D01*
X128849476Y-116736857D01*
X128849476Y-116832095D01*
X128897095Y-116974952D01*
X129468523Y-117546380D01*
X128849476Y-117546380D01*
X127992333Y-116879714D02*
X127992333Y-117546380D01*
X128230428Y-116498761D02*
X128468523Y-117213047D01*
X127849476Y-117213047D01*
X125636857Y-117513380D02*
X125970190Y-117037190D01*
X126208285Y-117513380D02*
X126208285Y-116513380D01*
X125827333Y-116513380D01*
X125732095Y-116561000D01*
X125684476Y-116608619D01*
X125636857Y-116703857D01*
X125636857Y-116846714D01*
X125684476Y-116941952D01*
X125732095Y-116989571D01*
X125827333Y-117037190D01*
X126208285Y-117037190D01*
X125255904Y-116608619D02*
X125208285Y-116561000D01*
X125113047Y-116513380D01*
X124874952Y-116513380D01*
X124779714Y-116561000D01*
X124732095Y-116608619D01*
X124684476Y-116703857D01*
X124684476Y-116799095D01*
X124732095Y-116941952D01*
X125303523Y-117513380D01*
X124684476Y-117513380D01*
X124351142Y-116513380D02*
X123732095Y-116513380D01*
X124065428Y-116894333D01*
X123922571Y-116894333D01*
X123827333Y-116941952D01*
X123779714Y-116989571D01*
X123732095Y-117084809D01*
X123732095Y-117322904D01*
X123779714Y-117418142D01*
X123827333Y-117465761D01*
X123922571Y-117513380D01*
X124208285Y-117513380D01*
X124303523Y-117465761D01*
X124351142Y-117418142D01*
X120086857Y-120624380D02*
X120420190Y-120148190D01*
X120658285Y-120624380D02*
X120658285Y-119624380D01*
X120277333Y-119624380D01*
X120182095Y-119672000D01*
X120134476Y-119719619D01*
X120086857Y-119814857D01*
X120086857Y-119957714D01*
X120134476Y-120052952D01*
X120182095Y-120100571D01*
X120277333Y-120148190D01*
X120658285Y-120148190D01*
X119705904Y-119719619D02*
X119658285Y-119672000D01*
X119563047Y-119624380D01*
X119324952Y-119624380D01*
X119229714Y-119672000D01*
X119182095Y-119719619D01*
X119134476Y-119814857D01*
X119134476Y-119910095D01*
X119182095Y-120052952D01*
X119753523Y-120624380D01*
X119134476Y-120624380D01*
X118753523Y-119719619D02*
X118705904Y-119672000D01*
X118610666Y-119624380D01*
X118372571Y-119624380D01*
X118277333Y-119672000D01*
X118229714Y-119719619D01*
X118182095Y-119814857D01*
X118182095Y-119910095D01*
X118229714Y-120052952D01*
X118801142Y-120624380D01*
X118182095Y-120624380D01*
X120086857Y-106086380D02*
X120420190Y-105610190D01*
X120658285Y-106086380D02*
X120658285Y-105086380D01*
X120277333Y-105086380D01*
X120182095Y-105134000D01*
X120134476Y-105181619D01*
X120086857Y-105276857D01*
X120086857Y-105419714D01*
X120134476Y-105514952D01*
X120182095Y-105562571D01*
X120277333Y-105610190D01*
X120658285Y-105610190D01*
X119705904Y-105181619D02*
X119658285Y-105134000D01*
X119563047Y-105086380D01*
X119324952Y-105086380D01*
X119229714Y-105134000D01*
X119182095Y-105181619D01*
X119134476Y-105276857D01*
X119134476Y-105372095D01*
X119182095Y-105514952D01*
X119753523Y-106086380D01*
X119134476Y-106086380D01*
X118182095Y-106086380D02*
X118753523Y-106086380D01*
X118467809Y-106086380D02*
X118467809Y-105086380D01*
X118563047Y-105229238D01*
X118658285Y-105324476D01*
X118753523Y-105372095D01*
X135262857Y-96812380D02*
X135596190Y-96336190D01*
X135834285Y-96812380D02*
X135834285Y-95812380D01*
X135453333Y-95812380D01*
X135358095Y-95860000D01*
X135310476Y-95907619D01*
X135262857Y-96002857D01*
X135262857Y-96145714D01*
X135310476Y-96240952D01*
X135358095Y-96288571D01*
X135453333Y-96336190D01*
X135834285Y-96336190D01*
X134881904Y-95907619D02*
X134834285Y-95860000D01*
X134739047Y-95812380D01*
X134500952Y-95812380D01*
X134405714Y-95860000D01*
X134358095Y-95907619D01*
X134310476Y-96002857D01*
X134310476Y-96098095D01*
X134358095Y-96240952D01*
X134929523Y-96812380D01*
X134310476Y-96812380D01*
X133691428Y-95812380D02*
X133596190Y-95812380D01*
X133500952Y-95860000D01*
X133453333Y-95907619D01*
X133405714Y-96002857D01*
X133358095Y-96193333D01*
X133358095Y-96431428D01*
X133405714Y-96621904D01*
X133453333Y-96717142D01*
X133500952Y-96764761D01*
X133596190Y-96812380D01*
X133691428Y-96812380D01*
X133786666Y-96764761D01*
X133834285Y-96717142D01*
X133881904Y-96621904D01*
X133929523Y-96431428D01*
X133929523Y-96193333D01*
X133881904Y-96002857D01*
X133834285Y-95907619D01*
X133786666Y-95860000D01*
X133691428Y-95812380D01*
X135262857Y-80556380D02*
X135596190Y-80080190D01*
X135834285Y-80556380D02*
X135834285Y-79556380D01*
X135453333Y-79556380D01*
X135358095Y-79604000D01*
X135310476Y-79651619D01*
X135262857Y-79746857D01*
X135262857Y-79889714D01*
X135310476Y-79984952D01*
X135358095Y-80032571D01*
X135453333Y-80080190D01*
X135834285Y-80080190D01*
X134310476Y-80556380D02*
X134881904Y-80556380D01*
X134596190Y-80556380D02*
X134596190Y-79556380D01*
X134691428Y-79699238D01*
X134786666Y-79794476D01*
X134881904Y-79842095D01*
X133834285Y-80556380D02*
X133643809Y-80556380D01*
X133548571Y-80508761D01*
X133500952Y-80461142D01*
X133405714Y-80318285D01*
X133358095Y-80127809D01*
X133358095Y-79746857D01*
X133405714Y-79651619D01*
X133453333Y-79604000D01*
X133548571Y-79556380D01*
X133739047Y-79556380D01*
X133834285Y-79604000D01*
X133881904Y-79651619D01*
X133929523Y-79746857D01*
X133929523Y-79984952D01*
X133881904Y-80080190D01*
X133834285Y-80127809D01*
X133739047Y-80175428D01*
X133548571Y-80175428D01*
X133453333Y-80127809D01*
X133405714Y-80080190D01*
X133358095Y-79984952D01*
X125610857Y-100368380D02*
X125944190Y-99892190D01*
X126182285Y-100368380D02*
X126182285Y-99368380D01*
X125801333Y-99368380D01*
X125706095Y-99416000D01*
X125658476Y-99463619D01*
X125610857Y-99558857D01*
X125610857Y-99701714D01*
X125658476Y-99796952D01*
X125706095Y-99844571D01*
X125801333Y-99892190D01*
X126182285Y-99892190D01*
X124658476Y-100368380D02*
X125229904Y-100368380D01*
X124944190Y-100368380D02*
X124944190Y-99368380D01*
X125039428Y-99511238D01*
X125134666Y-99606476D01*
X125229904Y-99654095D01*
X124087047Y-99796952D02*
X124182285Y-99749333D01*
X124229904Y-99701714D01*
X124277523Y-99606476D01*
X124277523Y-99558857D01*
X124229904Y-99463619D01*
X124182285Y-99416000D01*
X124087047Y-99368380D01*
X123896571Y-99368380D01*
X123801333Y-99416000D01*
X123753714Y-99463619D01*
X123706095Y-99558857D01*
X123706095Y-99606476D01*
X123753714Y-99701714D01*
X123801333Y-99749333D01*
X123896571Y-99796952D01*
X124087047Y-99796952D01*
X124182285Y-99844571D01*
X124229904Y-99892190D01*
X124277523Y-99987428D01*
X124277523Y-100177904D01*
X124229904Y-100273142D01*
X124182285Y-100320761D01*
X124087047Y-100368380D01*
X123896571Y-100368380D01*
X123801333Y-100320761D01*
X123753714Y-100273142D01*
X123706095Y-100177904D01*
X123706095Y-99987428D01*
X123753714Y-99892190D01*
X123801333Y-99844571D01*
X123896571Y-99796952D01*
X129801857Y-100401380D02*
X130135190Y-99925190D01*
X130373285Y-100401380D02*
X130373285Y-99401380D01*
X129992333Y-99401380D01*
X129897095Y-99449000D01*
X129849476Y-99496619D01*
X129801857Y-99591857D01*
X129801857Y-99734714D01*
X129849476Y-99829952D01*
X129897095Y-99877571D01*
X129992333Y-99925190D01*
X130373285Y-99925190D01*
X128849476Y-100401380D02*
X129420904Y-100401380D01*
X129135190Y-100401380D02*
X129135190Y-99401380D01*
X129230428Y-99544238D01*
X129325666Y-99639476D01*
X129420904Y-99687095D01*
X128516142Y-99401380D02*
X127849476Y-99401380D01*
X128278047Y-100401380D01*
X125610857Y-106243380D02*
X125944190Y-105767190D01*
X126182285Y-106243380D02*
X126182285Y-105243380D01*
X125801333Y-105243380D01*
X125706095Y-105291000D01*
X125658476Y-105338619D01*
X125610857Y-105433857D01*
X125610857Y-105576714D01*
X125658476Y-105671952D01*
X125706095Y-105719571D01*
X125801333Y-105767190D01*
X126182285Y-105767190D01*
X124658476Y-106243380D02*
X125229904Y-106243380D01*
X124944190Y-106243380D02*
X124944190Y-105243380D01*
X125039428Y-105386238D01*
X125134666Y-105481476D01*
X125229904Y-105529095D01*
X123801333Y-105243380D02*
X123991809Y-105243380D01*
X124087047Y-105291000D01*
X124134666Y-105338619D01*
X124229904Y-105481476D01*
X124277523Y-105671952D01*
X124277523Y-106052904D01*
X124229904Y-106148142D01*
X124182285Y-106195761D01*
X124087047Y-106243380D01*
X123896571Y-106243380D01*
X123801333Y-106195761D01*
X123753714Y-106148142D01*
X123706095Y-106052904D01*
X123706095Y-105814809D01*
X123753714Y-105719571D01*
X123801333Y-105671952D01*
X123896571Y-105624333D01*
X124087047Y-105624333D01*
X124182285Y-105671952D01*
X124229904Y-105719571D01*
X124277523Y-105814809D01*
X129801857Y-106210380D02*
X130135190Y-105734190D01*
X130373285Y-106210380D02*
X130373285Y-105210380D01*
X129992333Y-105210380D01*
X129897095Y-105258000D01*
X129849476Y-105305619D01*
X129801857Y-105400857D01*
X129801857Y-105543714D01*
X129849476Y-105638952D01*
X129897095Y-105686571D01*
X129992333Y-105734190D01*
X130373285Y-105734190D01*
X128849476Y-106210380D02*
X129420904Y-106210380D01*
X129135190Y-106210380D02*
X129135190Y-105210380D01*
X129230428Y-105353238D01*
X129325666Y-105448476D01*
X129420904Y-105496095D01*
X127944714Y-105210380D02*
X128420904Y-105210380D01*
X128468523Y-105686571D01*
X128420904Y-105638952D01*
X128325666Y-105591333D01*
X128087571Y-105591333D01*
X127992333Y-105638952D01*
X127944714Y-105686571D01*
X127897095Y-105781809D01*
X127897095Y-106019904D01*
X127944714Y-106115142D01*
X127992333Y-106162761D01*
X128087571Y-106210380D01*
X128325666Y-106210380D01*
X128420904Y-106162761D01*
X128468523Y-106115142D01*
X125610857Y-109131380D02*
X125944190Y-108655190D01*
X126182285Y-109131380D02*
X126182285Y-108131380D01*
X125801333Y-108131380D01*
X125706095Y-108179000D01*
X125658476Y-108226619D01*
X125610857Y-108321857D01*
X125610857Y-108464714D01*
X125658476Y-108559952D01*
X125706095Y-108607571D01*
X125801333Y-108655190D01*
X126182285Y-108655190D01*
X124658476Y-109131380D02*
X125229904Y-109131380D01*
X124944190Y-109131380D02*
X124944190Y-108131380D01*
X125039428Y-108274238D01*
X125134666Y-108369476D01*
X125229904Y-108417095D01*
X123801333Y-108464714D02*
X123801333Y-109131380D01*
X124039428Y-108083761D02*
X124277523Y-108798047D01*
X123658476Y-108798047D01*
X129801857Y-109197380D02*
X130135190Y-108721190D01*
X130373285Y-109197380D02*
X130373285Y-108197380D01*
X129992333Y-108197380D01*
X129897095Y-108245000D01*
X129849476Y-108292619D01*
X129801857Y-108387857D01*
X129801857Y-108530714D01*
X129849476Y-108625952D01*
X129897095Y-108673571D01*
X129992333Y-108721190D01*
X130373285Y-108721190D01*
X128849476Y-109197380D02*
X129420904Y-109197380D01*
X129135190Y-109197380D02*
X129135190Y-108197380D01*
X129230428Y-108340238D01*
X129325666Y-108435476D01*
X129420904Y-108483095D01*
X128516142Y-108197380D02*
X127897095Y-108197380D01*
X128230428Y-108578333D01*
X128087571Y-108578333D01*
X127992333Y-108625952D01*
X127944714Y-108673571D01*
X127897095Y-108768809D01*
X127897095Y-109006904D01*
X127944714Y-109102142D01*
X127992333Y-109149761D01*
X128087571Y-109197380D01*
X128373285Y-109197380D01*
X128468523Y-109149761D01*
X128516142Y-109102142D01*
X120086857Y-96812380D02*
X120420190Y-96336190D01*
X120658285Y-96812380D02*
X120658285Y-95812380D01*
X120277333Y-95812380D01*
X120182095Y-95860000D01*
X120134476Y-95907619D01*
X120086857Y-96002857D01*
X120086857Y-96145714D01*
X120134476Y-96240952D01*
X120182095Y-96288571D01*
X120277333Y-96336190D01*
X120658285Y-96336190D01*
X119134476Y-96812380D02*
X119705904Y-96812380D01*
X119420190Y-96812380D02*
X119420190Y-95812380D01*
X119515428Y-95955238D01*
X119610666Y-96050476D01*
X119705904Y-96098095D01*
X118753523Y-95907619D02*
X118705904Y-95860000D01*
X118610666Y-95812380D01*
X118372571Y-95812380D01*
X118277333Y-95860000D01*
X118229714Y-95907619D01*
X118182095Y-96002857D01*
X118182095Y-96098095D01*
X118229714Y-96240952D01*
X118801142Y-96812380D01*
X118182095Y-96812380D01*
X120086857Y-80556380D02*
X120420190Y-80080190D01*
X120658285Y-80556380D02*
X120658285Y-79556380D01*
X120277333Y-79556380D01*
X120182095Y-79604000D01*
X120134476Y-79651619D01*
X120086857Y-79746857D01*
X120086857Y-79889714D01*
X120134476Y-79984952D01*
X120182095Y-80032571D01*
X120277333Y-80080190D01*
X120658285Y-80080190D01*
X119134476Y-80556380D02*
X119705904Y-80556380D01*
X119420190Y-80556380D02*
X119420190Y-79556380D01*
X119515428Y-79699238D01*
X119610666Y-79794476D01*
X119705904Y-79842095D01*
X118182095Y-80556380D02*
X118753523Y-80556380D01*
X118467809Y-80556380D02*
X118467809Y-79556380D01*
X118563047Y-79699238D01*
X118658285Y-79794476D01*
X118753523Y-79842095D01*
X129801857Y-76492380D02*
X130135190Y-76016190D01*
X130373285Y-76492380D02*
X130373285Y-75492380D01*
X129992333Y-75492380D01*
X129897095Y-75540000D01*
X129849476Y-75587619D01*
X129801857Y-75682857D01*
X129801857Y-75825714D01*
X129849476Y-75920952D01*
X129897095Y-75968571D01*
X129992333Y-76016190D01*
X130373285Y-76016190D01*
X128849476Y-76492380D02*
X129420904Y-76492380D01*
X129135190Y-76492380D02*
X129135190Y-75492380D01*
X129230428Y-75635238D01*
X129325666Y-75730476D01*
X129420904Y-75778095D01*
X128230428Y-75492380D02*
X128135190Y-75492380D01*
X128039952Y-75540000D01*
X127992333Y-75587619D01*
X127944714Y-75682857D01*
X127897095Y-75873333D01*
X127897095Y-76111428D01*
X127944714Y-76301904D01*
X127992333Y-76397142D01*
X128039952Y-76444761D01*
X128135190Y-76492380D01*
X128230428Y-76492380D01*
X128325666Y-76444761D01*
X128373285Y-76397142D01*
X128420904Y-76301904D01*
X128468523Y-76111428D01*
X128468523Y-75873333D01*
X128420904Y-75682857D01*
X128373285Y-75587619D01*
X128325666Y-75540000D01*
X128230428Y-75492380D01*
X134786666Y-55316380D02*
X135120000Y-54840190D01*
X135358095Y-55316380D02*
X135358095Y-54316380D01*
X134977142Y-54316380D01*
X134881904Y-54364000D01*
X134834285Y-54411619D01*
X134786666Y-54506857D01*
X134786666Y-54649714D01*
X134834285Y-54744952D01*
X134881904Y-54792571D01*
X134977142Y-54840190D01*
X135358095Y-54840190D01*
X134310476Y-55316380D02*
X134120000Y-55316380D01*
X134024761Y-55268761D01*
X133977142Y-55221142D01*
X133881904Y-55078285D01*
X133834285Y-54887809D01*
X133834285Y-54506857D01*
X133881904Y-54411619D01*
X133929523Y-54364000D01*
X134024761Y-54316380D01*
X134215238Y-54316380D01*
X134310476Y-54364000D01*
X134358095Y-54411619D01*
X134405714Y-54506857D01*
X134405714Y-54744952D01*
X134358095Y-54840190D01*
X134310476Y-54887809D01*
X134215238Y-54935428D01*
X134024761Y-54935428D01*
X133929523Y-54887809D01*
X133881904Y-54840190D01*
X133834285Y-54744952D01*
X129325666Y-88242380D02*
X129659000Y-87766190D01*
X129897095Y-88242380D02*
X129897095Y-87242380D01*
X129516142Y-87242380D01*
X129420904Y-87290000D01*
X129373285Y-87337619D01*
X129325666Y-87432857D01*
X129325666Y-87575714D01*
X129373285Y-87670952D01*
X129420904Y-87718571D01*
X129516142Y-87766190D01*
X129897095Y-87766190D01*
X128754238Y-87670952D02*
X128849476Y-87623333D01*
X128897095Y-87575714D01*
X128944714Y-87480476D01*
X128944714Y-87432857D01*
X128897095Y-87337619D01*
X128849476Y-87290000D01*
X128754238Y-87242380D01*
X128563761Y-87242380D01*
X128468523Y-87290000D01*
X128420904Y-87337619D01*
X128373285Y-87432857D01*
X128373285Y-87480476D01*
X128420904Y-87575714D01*
X128468523Y-87623333D01*
X128563761Y-87670952D01*
X128754238Y-87670952D01*
X128849476Y-87718571D01*
X128897095Y-87766190D01*
X128944714Y-87861428D01*
X128944714Y-88051904D01*
X128897095Y-88147142D01*
X128849476Y-88194761D01*
X128754238Y-88242380D01*
X128563761Y-88242380D01*
X128468523Y-88194761D01*
X128420904Y-88147142D01*
X128373285Y-88051904D01*
X128373285Y-87861428D01*
X128420904Y-87766190D01*
X128468523Y-87718571D01*
X128563761Y-87670952D01*
X125134666Y-88176380D02*
X125468000Y-87700190D01*
X125706095Y-88176380D02*
X125706095Y-87176380D01*
X125325142Y-87176380D01*
X125229904Y-87224000D01*
X125182285Y-87271619D01*
X125134666Y-87366857D01*
X125134666Y-87509714D01*
X125182285Y-87604952D01*
X125229904Y-87652571D01*
X125325142Y-87700190D01*
X125706095Y-87700190D01*
X124801333Y-87176380D02*
X124134666Y-87176380D01*
X124563238Y-88176380D01*
X129325666Y-82334380D02*
X129659000Y-81858190D01*
X129897095Y-82334380D02*
X129897095Y-81334380D01*
X129516142Y-81334380D01*
X129420904Y-81382000D01*
X129373285Y-81429619D01*
X129325666Y-81524857D01*
X129325666Y-81667714D01*
X129373285Y-81762952D01*
X129420904Y-81810571D01*
X129516142Y-81858190D01*
X129897095Y-81858190D01*
X128468523Y-81334380D02*
X128659000Y-81334380D01*
X128754238Y-81382000D01*
X128801857Y-81429619D01*
X128897095Y-81572476D01*
X128944714Y-81762952D01*
X128944714Y-82143904D01*
X128897095Y-82239142D01*
X128849476Y-82286761D01*
X128754238Y-82334380D01*
X128563761Y-82334380D01*
X128468523Y-82286761D01*
X128420904Y-82239142D01*
X128373285Y-82143904D01*
X128373285Y-81905809D01*
X128420904Y-81810571D01*
X128468523Y-81762952D01*
X128563761Y-81715333D01*
X128754238Y-81715333D01*
X128849476Y-81762952D01*
X128897095Y-81810571D01*
X128944714Y-81905809D01*
X125134666Y-82400380D02*
X125468000Y-81924190D01*
X125706095Y-82400380D02*
X125706095Y-81400380D01*
X125325142Y-81400380D01*
X125229904Y-81448000D01*
X125182285Y-81495619D01*
X125134666Y-81590857D01*
X125134666Y-81733714D01*
X125182285Y-81828952D01*
X125229904Y-81876571D01*
X125325142Y-81924190D01*
X125706095Y-81924190D01*
X124229904Y-81400380D02*
X124706095Y-81400380D01*
X124753714Y-81876571D01*
X124706095Y-81828952D01*
X124610857Y-81781333D01*
X124372761Y-81781333D01*
X124277523Y-81828952D01*
X124229904Y-81876571D01*
X124182285Y-81971809D01*
X124182285Y-82209904D01*
X124229904Y-82305142D01*
X124277523Y-82352761D01*
X124372761Y-82400380D01*
X124610857Y-82400380D01*
X124706095Y-82352761D01*
X124753714Y-82305142D01*
X129325666Y-79446380D02*
X129659000Y-78970190D01*
X129897095Y-79446380D02*
X129897095Y-78446380D01*
X129516142Y-78446380D01*
X129420904Y-78494000D01*
X129373285Y-78541619D01*
X129325666Y-78636857D01*
X129325666Y-78779714D01*
X129373285Y-78874952D01*
X129420904Y-78922571D01*
X129516142Y-78970190D01*
X129897095Y-78970190D01*
X128468523Y-78779714D02*
X128468523Y-79446380D01*
X128706619Y-78398761D02*
X128944714Y-79113047D01*
X128325666Y-79113047D01*
X125134666Y-79413380D02*
X125468000Y-78937190D01*
X125706095Y-79413380D02*
X125706095Y-78413380D01*
X125325142Y-78413380D01*
X125229904Y-78461000D01*
X125182285Y-78508619D01*
X125134666Y-78603857D01*
X125134666Y-78746714D01*
X125182285Y-78841952D01*
X125229904Y-78889571D01*
X125325142Y-78937190D01*
X125706095Y-78937190D01*
X124801333Y-78413380D02*
X124182285Y-78413380D01*
X124515619Y-78794333D01*
X124372761Y-78794333D01*
X124277523Y-78841952D01*
X124229904Y-78889571D01*
X124182285Y-78984809D01*
X124182285Y-79222904D01*
X124229904Y-79318142D01*
X124277523Y-79365761D01*
X124372761Y-79413380D01*
X124658476Y-79413380D01*
X124753714Y-79365761D01*
X124801333Y-79318142D01*
X125134666Y-76492380D02*
X125468000Y-76016190D01*
X125706095Y-76492380D02*
X125706095Y-75492380D01*
X125325142Y-75492380D01*
X125229904Y-75540000D01*
X125182285Y-75587619D01*
X125134666Y-75682857D01*
X125134666Y-75825714D01*
X125182285Y-75920952D01*
X125229904Y-75968571D01*
X125325142Y-76016190D01*
X125706095Y-76016190D01*
X124753714Y-75587619D02*
X124706095Y-75540000D01*
X124610857Y-75492380D01*
X124372761Y-75492380D01*
X124277523Y-75540000D01*
X124229904Y-75587619D01*
X124182285Y-75682857D01*
X124182285Y-75778095D01*
X124229904Y-75920952D01*
X124801333Y-76492380D01*
X124182285Y-76492380D01*
X119610666Y-55283380D02*
X119944000Y-54807190D01*
X120182095Y-55283380D02*
X120182095Y-54283380D01*
X119801142Y-54283380D01*
X119705904Y-54331000D01*
X119658285Y-54378619D01*
X119610666Y-54473857D01*
X119610666Y-54616714D01*
X119658285Y-54711952D01*
X119705904Y-54759571D01*
X119801142Y-54807190D01*
X120182095Y-54807190D01*
X118658285Y-55283380D02*
X119229714Y-55283380D01*
X118944000Y-55283380D02*
X118944000Y-54283380D01*
X119039238Y-54426238D01*
X119134476Y-54521476D01*
X119229714Y-54569095D01*
X137375571Y-64190666D02*
X137375571Y-63857333D01*
X137899380Y-63857333D02*
X136899380Y-63857333D01*
X136899380Y-64333523D01*
X137375571Y-65047809D02*
X137423190Y-65190666D01*
X137470809Y-65238285D01*
X137566047Y-65285904D01*
X137708904Y-65285904D01*
X137804142Y-65238285D01*
X137851761Y-65190666D01*
X137899380Y-65095428D01*
X137899380Y-64714476D01*
X136899380Y-64714476D01*
X136899380Y-65047809D01*
X136947000Y-65143047D01*
X136994619Y-65190666D01*
X137089857Y-65238285D01*
X137185095Y-65238285D01*
X137280333Y-65190666D01*
X137327952Y-65143047D01*
X137375571Y-65047809D01*
X137375571Y-64714476D01*
X136994619Y-65666857D02*
X136947000Y-65714476D01*
X136899380Y-65809714D01*
X136899380Y-66047809D01*
X136947000Y-66143047D01*
X136994619Y-66190666D01*
X137089857Y-66238285D01*
X137185095Y-66238285D01*
X137327952Y-66190666D01*
X137899380Y-65619238D01*
X137899380Y-66238285D01*
X114007571Y-64190666D02*
X114007571Y-63857333D01*
X114531380Y-63857333D02*
X113531380Y-63857333D01*
X113531380Y-64333523D01*
X114007571Y-65047809D02*
X114055190Y-65190666D01*
X114102809Y-65238285D01*
X114198047Y-65285904D01*
X114340904Y-65285904D01*
X114436142Y-65238285D01*
X114483761Y-65190666D01*
X114531380Y-65095428D01*
X114531380Y-64714476D01*
X113531380Y-64714476D01*
X113531380Y-65047809D01*
X113579000Y-65143047D01*
X113626619Y-65190666D01*
X113721857Y-65238285D01*
X113817095Y-65238285D01*
X113912333Y-65190666D01*
X113959952Y-65143047D01*
X114007571Y-65047809D01*
X114007571Y-64714476D01*
X114531380Y-66238285D02*
X114531380Y-65666857D01*
X114531380Y-65952571D02*
X113531380Y-65952571D01*
X113674238Y-65857333D01*
X113769476Y-65762095D01*
X113817095Y-65666857D01*
X114515380Y-52093904D02*
X113515380Y-52093904D01*
X113515380Y-52332000D01*
X113563000Y-52474857D01*
X113658238Y-52570095D01*
X113753476Y-52617714D01*
X113943952Y-52665333D01*
X114086809Y-52665333D01*
X114277285Y-52617714D01*
X114372523Y-52570095D01*
X114467761Y-52474857D01*
X114515380Y-52332000D01*
X114515380Y-52093904D01*
X113515380Y-52998666D02*
X113515380Y-53617714D01*
X113896333Y-53284380D01*
X113896333Y-53427238D01*
X113943952Y-53522476D01*
X113991571Y-53570095D01*
X114086809Y-53617714D01*
X114324904Y-53617714D01*
X114420142Y-53570095D01*
X114467761Y-53522476D01*
X114515380Y-53427238D01*
X114515380Y-53141523D01*
X114467761Y-53046285D01*
X114420142Y-52998666D01*
X137263380Y-59078904D02*
X136263380Y-59078904D01*
X136263380Y-59317000D01*
X136311000Y-59459857D01*
X136406238Y-59555095D01*
X136501476Y-59602714D01*
X136691952Y-59650333D01*
X136834809Y-59650333D01*
X137025285Y-59602714D01*
X137120523Y-59555095D01*
X137215761Y-59459857D01*
X137263380Y-59317000D01*
X137263380Y-59078904D01*
X136358619Y-60031285D02*
X136311000Y-60078904D01*
X136263380Y-60174142D01*
X136263380Y-60412238D01*
X136311000Y-60507476D01*
X136358619Y-60555095D01*
X136453857Y-60602714D01*
X136549095Y-60602714D01*
X136691952Y-60555095D01*
X137263380Y-59983666D01*
X137263380Y-60602714D01*
X113990380Y-59078904D02*
X112990380Y-59078904D01*
X112990380Y-59317000D01*
X113038000Y-59459857D01*
X113133238Y-59555095D01*
X113228476Y-59602714D01*
X113418952Y-59650333D01*
X113561809Y-59650333D01*
X113752285Y-59602714D01*
X113847523Y-59555095D01*
X113942761Y-59459857D01*
X113990380Y-59317000D01*
X113990380Y-59078904D01*
X113990380Y-60602714D02*
X113990380Y-60031285D01*
X113990380Y-60317000D02*
X112990380Y-60317000D01*
X113133238Y-60221761D01*
X113228476Y-60126523D01*
X113276095Y-60031285D01*
X132087857Y-67811142D02*
X132135476Y-67858761D01*
X132278333Y-67906380D01*
X132373571Y-67906380D01*
X132516428Y-67858761D01*
X132611666Y-67763523D01*
X132659285Y-67668285D01*
X132706904Y-67477809D01*
X132706904Y-67334952D01*
X132659285Y-67144476D01*
X132611666Y-67049238D01*
X132516428Y-66954000D01*
X132373571Y-66906380D01*
X132278333Y-66906380D01*
X132135476Y-66954000D01*
X132087857Y-67001619D01*
X131135476Y-67906380D02*
X131706904Y-67906380D01*
X131421190Y-67906380D02*
X131421190Y-66906380D01*
X131516428Y-67049238D01*
X131611666Y-67144476D01*
X131706904Y-67192095D01*
X130278333Y-67239714D02*
X130278333Y-67906380D01*
X130516428Y-66858761D02*
X130754523Y-67573047D01*
X130135476Y-67573047D01*
X116593857Y-67811142D02*
X116641476Y-67858761D01*
X116784333Y-67906380D01*
X116879571Y-67906380D01*
X117022428Y-67858761D01*
X117117666Y-67763523D01*
X117165285Y-67668285D01*
X117212904Y-67477809D01*
X117212904Y-67334952D01*
X117165285Y-67144476D01*
X117117666Y-67049238D01*
X117022428Y-66954000D01*
X116879571Y-66906380D01*
X116784333Y-66906380D01*
X116641476Y-66954000D01*
X116593857Y-67001619D01*
X115641476Y-67906380D02*
X116212904Y-67906380D01*
X115927190Y-67906380D02*
X115927190Y-66906380D01*
X116022428Y-67049238D01*
X116117666Y-67144476D01*
X116212904Y-67192095D01*
X115308142Y-66906380D02*
X114689095Y-66906380D01*
X115022428Y-67287333D01*
X114879571Y-67287333D01*
X114784333Y-67334952D01*
X114736714Y-67382571D01*
X114689095Y-67477809D01*
X114689095Y-67715904D01*
X114736714Y-67811142D01*
X114784333Y-67858761D01*
X114879571Y-67906380D01*
X115165285Y-67906380D01*
X115260523Y-67858761D01*
X115308142Y-67811142D01*
X125636857Y-141327142D02*
X125684476Y-141374761D01*
X125827333Y-141422380D01*
X125922571Y-141422380D01*
X126065428Y-141374761D01*
X126160666Y-141279523D01*
X126208285Y-141184285D01*
X126255904Y-140993809D01*
X126255904Y-140850952D01*
X126208285Y-140660476D01*
X126160666Y-140565238D01*
X126065428Y-140470000D01*
X125922571Y-140422380D01*
X125827333Y-140422380D01*
X125684476Y-140470000D01*
X125636857Y-140517619D01*
X124684476Y-141422380D02*
X125255904Y-141422380D01*
X124970190Y-141422380D02*
X124970190Y-140422380D01*
X125065428Y-140565238D01*
X125160666Y-140660476D01*
X125255904Y-140708095D01*
X124303523Y-140517619D02*
X124255904Y-140470000D01*
X124160666Y-140422380D01*
X123922571Y-140422380D01*
X123827333Y-140470000D01*
X123779714Y-140517619D01*
X123732095Y-140612857D01*
X123732095Y-140708095D01*
X123779714Y-140850952D01*
X124351142Y-141422380D01*
X123732095Y-141422380D01*
X129801857Y-141294142D02*
X129849476Y-141341761D01*
X129992333Y-141389380D01*
X130087571Y-141389380D01*
X130230428Y-141341761D01*
X130325666Y-141246523D01*
X130373285Y-141151285D01*
X130420904Y-140960809D01*
X130420904Y-140817952D01*
X130373285Y-140627476D01*
X130325666Y-140532238D01*
X130230428Y-140437000D01*
X130087571Y-140389380D01*
X129992333Y-140389380D01*
X129849476Y-140437000D01*
X129801857Y-140484619D01*
X128849476Y-141389380D02*
X129420904Y-141389380D01*
X129135190Y-141389380D02*
X129135190Y-140389380D01*
X129230428Y-140532238D01*
X129325666Y-140627476D01*
X129420904Y-140675095D01*
X127897095Y-141389380D02*
X128468523Y-141389380D01*
X128182809Y-141389380D02*
X128182809Y-140389380D01*
X128278047Y-140532238D01*
X128373285Y-140627476D01*
X128468523Y-140675095D01*
X135262857Y-130372142D02*
X135310476Y-130419761D01*
X135453333Y-130467380D01*
X135548571Y-130467380D01*
X135691428Y-130419761D01*
X135786666Y-130324523D01*
X135834285Y-130229285D01*
X135881904Y-130038809D01*
X135881904Y-129895952D01*
X135834285Y-129705476D01*
X135786666Y-129610238D01*
X135691428Y-129515000D01*
X135548571Y-129467380D01*
X135453333Y-129467380D01*
X135310476Y-129515000D01*
X135262857Y-129562619D01*
X134310476Y-130467380D02*
X134881904Y-130467380D01*
X134596190Y-130467380D02*
X134596190Y-129467380D01*
X134691428Y-129610238D01*
X134786666Y-129705476D01*
X134881904Y-129753095D01*
X133691428Y-129467380D02*
X133596190Y-129467380D01*
X133500952Y-129515000D01*
X133453333Y-129562619D01*
X133405714Y-129657857D01*
X133358095Y-129848333D01*
X133358095Y-130086428D01*
X133405714Y-130276904D01*
X133453333Y-130372142D01*
X133500952Y-130419761D01*
X133596190Y-130467380D01*
X133691428Y-130467380D01*
X133786666Y-130419761D01*
X133834285Y-130372142D01*
X133881904Y-130276904D01*
X133929523Y-130086428D01*
X133929523Y-129848333D01*
X133881904Y-129657857D01*
X133834285Y-129562619D01*
X133786666Y-129515000D01*
X133691428Y-129467380D01*
X119546666Y-130372142D02*
X119594285Y-130419761D01*
X119737142Y-130467380D01*
X119832380Y-130467380D01*
X119975238Y-130419761D01*
X120070476Y-130324523D01*
X120118095Y-130229285D01*
X120165714Y-130038809D01*
X120165714Y-129895952D01*
X120118095Y-129705476D01*
X120070476Y-129610238D01*
X119975238Y-129515000D01*
X119832380Y-129467380D01*
X119737142Y-129467380D01*
X119594285Y-129515000D01*
X119546666Y-129562619D01*
X119070476Y-130467380D02*
X118880000Y-130467380D01*
X118784761Y-130419761D01*
X118737142Y-130372142D01*
X118641904Y-130229285D01*
X118594285Y-130038809D01*
X118594285Y-129657857D01*
X118641904Y-129562619D01*
X118689523Y-129515000D01*
X118784761Y-129467380D01*
X118975238Y-129467380D01*
X119070476Y-129515000D01*
X119118095Y-129562619D01*
X119165714Y-129657857D01*
X119165714Y-129895952D01*
X119118095Y-129991190D01*
X119070476Y-130038809D01*
X118975238Y-130086428D01*
X118784761Y-130086428D01*
X118689523Y-130038809D01*
X118641904Y-129991190D01*
X118594285Y-129895952D01*
X129325666Y-123260142D02*
X129373285Y-123307761D01*
X129516142Y-123355380D01*
X129611380Y-123355380D01*
X129754238Y-123307761D01*
X129849476Y-123212523D01*
X129897095Y-123117285D01*
X129944714Y-122926809D01*
X129944714Y-122783952D01*
X129897095Y-122593476D01*
X129849476Y-122498238D01*
X129754238Y-122403000D01*
X129611380Y-122355380D01*
X129516142Y-122355380D01*
X129373285Y-122403000D01*
X129325666Y-122450619D01*
X128754238Y-122783952D02*
X128849476Y-122736333D01*
X128897095Y-122688714D01*
X128944714Y-122593476D01*
X128944714Y-122545857D01*
X128897095Y-122450619D01*
X128849476Y-122403000D01*
X128754238Y-122355380D01*
X128563761Y-122355380D01*
X128468523Y-122403000D01*
X128420904Y-122450619D01*
X128373285Y-122545857D01*
X128373285Y-122593476D01*
X128420904Y-122688714D01*
X128468523Y-122736333D01*
X128563761Y-122783952D01*
X128754238Y-122783952D01*
X128849476Y-122831571D01*
X128897095Y-122879190D01*
X128944714Y-122974428D01*
X128944714Y-123164904D01*
X128897095Y-123260142D01*
X128849476Y-123307761D01*
X128754238Y-123355380D01*
X128563761Y-123355380D01*
X128468523Y-123307761D01*
X128420904Y-123260142D01*
X128373285Y-123164904D01*
X128373285Y-122974428D01*
X128420904Y-122879190D01*
X128468523Y-122831571D01*
X128563761Y-122783952D01*
X125160666Y-123293142D02*
X125208285Y-123340761D01*
X125351142Y-123388380D01*
X125446380Y-123388380D01*
X125589238Y-123340761D01*
X125684476Y-123245523D01*
X125732095Y-123150285D01*
X125779714Y-122959809D01*
X125779714Y-122816952D01*
X125732095Y-122626476D01*
X125684476Y-122531238D01*
X125589238Y-122436000D01*
X125446380Y-122388380D01*
X125351142Y-122388380D01*
X125208285Y-122436000D01*
X125160666Y-122483619D01*
X124827333Y-122388380D02*
X124160666Y-122388380D01*
X124589238Y-123388380D01*
X125134666Y-103260142D02*
X125182285Y-103307761D01*
X125325142Y-103355380D01*
X125420380Y-103355380D01*
X125563238Y-103307761D01*
X125658476Y-103212523D01*
X125706095Y-103117285D01*
X125753714Y-102926809D01*
X125753714Y-102783952D01*
X125706095Y-102593476D01*
X125658476Y-102498238D01*
X125563238Y-102403000D01*
X125420380Y-102355380D01*
X125325142Y-102355380D01*
X125182285Y-102403000D01*
X125134666Y-102450619D01*
X124277523Y-102355380D02*
X124468000Y-102355380D01*
X124563238Y-102403000D01*
X124610857Y-102450619D01*
X124706095Y-102593476D01*
X124753714Y-102783952D01*
X124753714Y-103164904D01*
X124706095Y-103260142D01*
X124658476Y-103307761D01*
X124563238Y-103355380D01*
X124372761Y-103355380D01*
X124277523Y-103307761D01*
X124229904Y-103260142D01*
X124182285Y-103164904D01*
X124182285Y-102926809D01*
X124229904Y-102831571D01*
X124277523Y-102783952D01*
X124372761Y-102736333D01*
X124563238Y-102736333D01*
X124658476Y-102783952D01*
X124706095Y-102831571D01*
X124753714Y-102926809D01*
X129325666Y-103194142D02*
X129373285Y-103241761D01*
X129516142Y-103289380D01*
X129611380Y-103289380D01*
X129754238Y-103241761D01*
X129849476Y-103146523D01*
X129897095Y-103051285D01*
X129944714Y-102860809D01*
X129944714Y-102717952D01*
X129897095Y-102527476D01*
X129849476Y-102432238D01*
X129754238Y-102337000D01*
X129611380Y-102289380D01*
X129516142Y-102289380D01*
X129373285Y-102337000D01*
X129325666Y-102384619D01*
X128420904Y-102289380D02*
X128897095Y-102289380D01*
X128944714Y-102765571D01*
X128897095Y-102717952D01*
X128801857Y-102670333D01*
X128563761Y-102670333D01*
X128468523Y-102717952D01*
X128420904Y-102765571D01*
X128373285Y-102860809D01*
X128373285Y-103098904D01*
X128420904Y-103194142D01*
X128468523Y-103241761D01*
X128563761Y-103289380D01*
X128801857Y-103289380D01*
X128897095Y-103241761D01*
X128944714Y-103194142D01*
X134786666Y-93923142D02*
X134834285Y-93970761D01*
X134977142Y-94018380D01*
X135072380Y-94018380D01*
X135215238Y-93970761D01*
X135310476Y-93875523D01*
X135358095Y-93780285D01*
X135405714Y-93589809D01*
X135405714Y-93446952D01*
X135358095Y-93256476D01*
X135310476Y-93161238D01*
X135215238Y-93066000D01*
X135072380Y-93018380D01*
X134977142Y-93018380D01*
X134834285Y-93066000D01*
X134786666Y-93113619D01*
X133929523Y-93351714D02*
X133929523Y-94018380D01*
X134167619Y-92970761D02*
X134405714Y-93685047D01*
X133786666Y-93685047D01*
X119546666Y-93923142D02*
X119594285Y-93970761D01*
X119737142Y-94018380D01*
X119832380Y-94018380D01*
X119975238Y-93970761D01*
X120070476Y-93875523D01*
X120118095Y-93780285D01*
X120165714Y-93589809D01*
X120165714Y-93446952D01*
X120118095Y-93256476D01*
X120070476Y-93161238D01*
X119975238Y-93066000D01*
X119832380Y-93018380D01*
X119737142Y-93018380D01*
X119594285Y-93066000D01*
X119546666Y-93113619D01*
X119213333Y-93018380D02*
X118594285Y-93018380D01*
X118927619Y-93399333D01*
X118784761Y-93399333D01*
X118689523Y-93446952D01*
X118641904Y-93494571D01*
X118594285Y-93589809D01*
X118594285Y-93827904D01*
X118641904Y-93923142D01*
X118689523Y-93970761D01*
X118784761Y-94018380D01*
X119070476Y-94018380D01*
X119165714Y-93970761D01*
X119213333Y-93923142D01*
X129325666Y-85160142D02*
X129373285Y-85207761D01*
X129516142Y-85255380D01*
X129611380Y-85255380D01*
X129754238Y-85207761D01*
X129849476Y-85112523D01*
X129897095Y-85017285D01*
X129944714Y-84826809D01*
X129944714Y-84683952D01*
X129897095Y-84493476D01*
X129849476Y-84398238D01*
X129754238Y-84303000D01*
X129611380Y-84255380D01*
X129516142Y-84255380D01*
X129373285Y-84303000D01*
X129325666Y-84350619D01*
X128944714Y-84350619D02*
X128897095Y-84303000D01*
X128801857Y-84255380D01*
X128563761Y-84255380D01*
X128468523Y-84303000D01*
X128420904Y-84350619D01*
X128373285Y-84445857D01*
X128373285Y-84541095D01*
X128420904Y-84683952D01*
X128992333Y-85255380D01*
X128373285Y-85255380D01*
X125134666Y-85193142D02*
X125182285Y-85240761D01*
X125325142Y-85288380D01*
X125420380Y-85288380D01*
X125563238Y-85240761D01*
X125658476Y-85145523D01*
X125706095Y-85050285D01*
X125753714Y-84859809D01*
X125753714Y-84716952D01*
X125706095Y-84526476D01*
X125658476Y-84431238D01*
X125563238Y-84336000D01*
X125420380Y-84288380D01*
X125325142Y-84288380D01*
X125182285Y-84336000D01*
X125134666Y-84383619D01*
X124182285Y-85288380D02*
X124753714Y-85288380D01*
X124468000Y-85288380D02*
X124468000Y-84288380D01*
X124563238Y-84431238D01*
X124658476Y-84526476D01*
X124753714Y-84574095D01*
M02*
