G04 #@! TF.GenerationSoftware,KiCad,Pcbnew,5.1.4-e60b266~84~ubuntu18.04.1*
G04 #@! TF.CreationDate,2019-10-28T13:22:00+08:00*
G04 #@! TF.ProjectId,Lines,4c696e65-732e-46b6-9963-61645f706362,rev?*
G04 #@! TF.SameCoordinates,Original*
G04 #@! TF.FileFunction,Soldermask,Top*
G04 #@! TF.FilePolarity,Negative*
%FSLAX46Y46*%
G04 Gerber Fmt 4.6, Leading zero omitted, Abs format (unit mm)*
G04 Created by KiCad (PCBNEW 5.1.4-e60b266~84~ubuntu18.04.1) date 2019-10-28 13:22:00*
%MOMM*%
%LPD*%
G04 APERTURE LIST*
%ADD10C,0.100000*%
G04 APERTURE END LIST*
D10*
G36*
X135248571Y-150172863D02*
G01*
X135327023Y-150180590D01*
X135427682Y-150211125D01*
X135478013Y-150226392D01*
X135617165Y-150300771D01*
X135739133Y-150400867D01*
X135839229Y-150522835D01*
X135913608Y-150661987D01*
X135913608Y-150661988D01*
X135959410Y-150812977D01*
X135974875Y-150970000D01*
X135959410Y-151127023D01*
X135928875Y-151227682D01*
X135913608Y-151278013D01*
X135839229Y-151417165D01*
X135739133Y-151539133D01*
X135617165Y-151639229D01*
X135478013Y-151713608D01*
X135427682Y-151728875D01*
X135327023Y-151759410D01*
X135248571Y-151767137D01*
X135209346Y-151771000D01*
X134030654Y-151771000D01*
X133991429Y-151767137D01*
X133912977Y-151759410D01*
X133812318Y-151728875D01*
X133761987Y-151713608D01*
X133622835Y-151639229D01*
X133500867Y-151539133D01*
X133400771Y-151417165D01*
X133326392Y-151278013D01*
X133311125Y-151227682D01*
X133280590Y-151127023D01*
X133265125Y-150970000D01*
X133280590Y-150812977D01*
X133326392Y-150661988D01*
X133326392Y-150661987D01*
X133400771Y-150522835D01*
X133500867Y-150400867D01*
X133622835Y-150300771D01*
X133761987Y-150226392D01*
X133812318Y-150211125D01*
X133912977Y-150180590D01*
X133991429Y-150172863D01*
X134030654Y-150169000D01*
X135209346Y-150169000D01*
X135248571Y-150172863D01*
X135248571Y-150172863D01*
G37*
G36*
X120008571Y-150172863D02*
G01*
X120087023Y-150180590D01*
X120187682Y-150211125D01*
X120238013Y-150226392D01*
X120377165Y-150300771D01*
X120499133Y-150400867D01*
X120599229Y-150522835D01*
X120673608Y-150661987D01*
X120673608Y-150661988D01*
X120719410Y-150812977D01*
X120734875Y-150970000D01*
X120719410Y-151127023D01*
X120688875Y-151227682D01*
X120673608Y-151278013D01*
X120599229Y-151417165D01*
X120499133Y-151539133D01*
X120377165Y-151639229D01*
X120238013Y-151713608D01*
X120187682Y-151728875D01*
X120087023Y-151759410D01*
X120008571Y-151767137D01*
X119969346Y-151771000D01*
X118790654Y-151771000D01*
X118751429Y-151767137D01*
X118672977Y-151759410D01*
X118572318Y-151728875D01*
X118521987Y-151713608D01*
X118382835Y-151639229D01*
X118260867Y-151539133D01*
X118160771Y-151417165D01*
X118086392Y-151278013D01*
X118071125Y-151227682D01*
X118040590Y-151127023D01*
X118025125Y-150970000D01*
X118040590Y-150812977D01*
X118086392Y-150661988D01*
X118086392Y-150661987D01*
X118160771Y-150522835D01*
X118260867Y-150400867D01*
X118382835Y-150300771D01*
X118521987Y-150226392D01*
X118572318Y-150211125D01*
X118672977Y-150180590D01*
X118751429Y-150172863D01*
X118790654Y-150169000D01*
X119969346Y-150169000D01*
X120008571Y-150172863D01*
X120008571Y-150172863D01*
G37*
G36*
X135286823Y-141831313D02*
G01*
X135447242Y-141879976D01*
X135579906Y-141950886D01*
X135595078Y-141958996D01*
X135724659Y-142065341D01*
X135831004Y-142194922D01*
X135831005Y-142194924D01*
X135910024Y-142342758D01*
X135958687Y-142503177D01*
X135975117Y-142670000D01*
X135958687Y-142836823D01*
X135910024Y-142997242D01*
X135839114Y-143129906D01*
X135831004Y-143145078D01*
X135724659Y-143274659D01*
X135595078Y-143381004D01*
X135595076Y-143381005D01*
X135447242Y-143460024D01*
X135286823Y-143508687D01*
X135161804Y-143521000D01*
X134078196Y-143521000D01*
X133953177Y-143508687D01*
X133792758Y-143460024D01*
X133644924Y-143381005D01*
X133644922Y-143381004D01*
X133515341Y-143274659D01*
X133408996Y-143145078D01*
X133400886Y-143129906D01*
X133329976Y-142997242D01*
X133281313Y-142836823D01*
X133264883Y-142670000D01*
X133281313Y-142503177D01*
X133329976Y-142342758D01*
X133408995Y-142194924D01*
X133408996Y-142194922D01*
X133515341Y-142065341D01*
X133644922Y-141958996D01*
X133660094Y-141950886D01*
X133792758Y-141879976D01*
X133953177Y-141831313D01*
X134078196Y-141819000D01*
X135161804Y-141819000D01*
X135286823Y-141831313D01*
X135286823Y-141831313D01*
G37*
G36*
X120046823Y-141831313D02*
G01*
X120207242Y-141879976D01*
X120339906Y-141950886D01*
X120355078Y-141958996D01*
X120484659Y-142065341D01*
X120591004Y-142194922D01*
X120591005Y-142194924D01*
X120670024Y-142342758D01*
X120718687Y-142503177D01*
X120735117Y-142670000D01*
X120718687Y-142836823D01*
X120670024Y-142997242D01*
X120599114Y-143129906D01*
X120591004Y-143145078D01*
X120484659Y-143274659D01*
X120355078Y-143381004D01*
X120355076Y-143381005D01*
X120207242Y-143460024D01*
X120046823Y-143508687D01*
X119921804Y-143521000D01*
X118838196Y-143521000D01*
X118713177Y-143508687D01*
X118552758Y-143460024D01*
X118404924Y-143381005D01*
X118404922Y-143381004D01*
X118275341Y-143274659D01*
X118168996Y-143145078D01*
X118160886Y-143129906D01*
X118089976Y-142997242D01*
X118041313Y-142836823D01*
X118024883Y-142670000D01*
X118041313Y-142503177D01*
X118089976Y-142342758D01*
X118168995Y-142194924D01*
X118168996Y-142194922D01*
X118275341Y-142065341D01*
X118404922Y-141958996D01*
X118420094Y-141950886D01*
X118552758Y-141879976D01*
X118713177Y-141831313D01*
X118838196Y-141819000D01*
X119921804Y-141819000D01*
X120046823Y-141831313D01*
X120046823Y-141831313D01*
G37*
G36*
X119826228Y-138713483D02*
G01*
X120014922Y-138770723D01*
X120188815Y-138863671D01*
X120341239Y-138988761D01*
X120466329Y-139141185D01*
X120559277Y-139315078D01*
X120616517Y-139503772D01*
X120635843Y-139700000D01*
X120616517Y-139896228D01*
X120559277Y-140084922D01*
X120466329Y-140258815D01*
X120341239Y-140411239D01*
X120188815Y-140536329D01*
X120014922Y-140629277D01*
X119826228Y-140686517D01*
X119679175Y-140701000D01*
X119080825Y-140701000D01*
X118933772Y-140686517D01*
X118745078Y-140629277D01*
X118571185Y-140536329D01*
X118418761Y-140411239D01*
X118293671Y-140258815D01*
X118200723Y-140084922D01*
X118143483Y-139896228D01*
X118124157Y-139700000D01*
X118143483Y-139503772D01*
X118200723Y-139315078D01*
X118293671Y-139141185D01*
X118418761Y-138988761D01*
X118571185Y-138863671D01*
X118745078Y-138770723D01*
X118933772Y-138713483D01*
X119080825Y-138699000D01*
X119679175Y-138699000D01*
X119826228Y-138713483D01*
X119826228Y-138713483D01*
G37*
G36*
X135066228Y-138713483D02*
G01*
X135254922Y-138770723D01*
X135428815Y-138863671D01*
X135581239Y-138988761D01*
X135706329Y-139141185D01*
X135799277Y-139315078D01*
X135856517Y-139503772D01*
X135875843Y-139700000D01*
X135856517Y-139896228D01*
X135799277Y-140084922D01*
X135706329Y-140258815D01*
X135581239Y-140411239D01*
X135428815Y-140536329D01*
X135254922Y-140629277D01*
X135066228Y-140686517D01*
X134919175Y-140701000D01*
X134320825Y-140701000D01*
X134173772Y-140686517D01*
X133985078Y-140629277D01*
X133811185Y-140536329D01*
X133658761Y-140411239D01*
X133533671Y-140258815D01*
X133440723Y-140084922D01*
X133383483Y-139896228D01*
X133364157Y-139700000D01*
X133383483Y-139503772D01*
X133440723Y-139315078D01*
X133533671Y-139141185D01*
X133658761Y-138988761D01*
X133811185Y-138863671D01*
X133985078Y-138770723D01*
X134173772Y-138713483D01*
X134320825Y-138699000D01*
X134919175Y-138699000D01*
X135066228Y-138713483D01*
X135066228Y-138713483D01*
G37*
G36*
X120046823Y-135891313D02*
G01*
X120207242Y-135939976D01*
X120339906Y-136010886D01*
X120355078Y-136018996D01*
X120484659Y-136125341D01*
X120591004Y-136254922D01*
X120591005Y-136254924D01*
X120670024Y-136402758D01*
X120718687Y-136563177D01*
X120735117Y-136730000D01*
X120718687Y-136896823D01*
X120670024Y-137057242D01*
X120599114Y-137189906D01*
X120591004Y-137205078D01*
X120484659Y-137334659D01*
X120355078Y-137441004D01*
X120355076Y-137441005D01*
X120207242Y-137520024D01*
X120046823Y-137568687D01*
X119921804Y-137581000D01*
X118838196Y-137581000D01*
X118713177Y-137568687D01*
X118552758Y-137520024D01*
X118404924Y-137441005D01*
X118404922Y-137441004D01*
X118275341Y-137334659D01*
X118168996Y-137205078D01*
X118160886Y-137189906D01*
X118089976Y-137057242D01*
X118041313Y-136896823D01*
X118024883Y-136730000D01*
X118041313Y-136563177D01*
X118089976Y-136402758D01*
X118168995Y-136254924D01*
X118168996Y-136254922D01*
X118275341Y-136125341D01*
X118404922Y-136018996D01*
X118420094Y-136010886D01*
X118552758Y-135939976D01*
X118713177Y-135891313D01*
X118838196Y-135879000D01*
X119921804Y-135879000D01*
X120046823Y-135891313D01*
X120046823Y-135891313D01*
G37*
G36*
X135286823Y-135891313D02*
G01*
X135447242Y-135939976D01*
X135579906Y-136010886D01*
X135595078Y-136018996D01*
X135724659Y-136125341D01*
X135831004Y-136254922D01*
X135831005Y-136254924D01*
X135910024Y-136402758D01*
X135958687Y-136563177D01*
X135975117Y-136730000D01*
X135958687Y-136896823D01*
X135910024Y-137057242D01*
X135839114Y-137189906D01*
X135831004Y-137205078D01*
X135724659Y-137334659D01*
X135595078Y-137441004D01*
X135595076Y-137441005D01*
X135447242Y-137520024D01*
X135286823Y-137568687D01*
X135161804Y-137581000D01*
X134078196Y-137581000D01*
X133953177Y-137568687D01*
X133792758Y-137520024D01*
X133644924Y-137441005D01*
X133644922Y-137441004D01*
X133515341Y-137334659D01*
X133408996Y-137205078D01*
X133400886Y-137189906D01*
X133329976Y-137057242D01*
X133281313Y-136896823D01*
X133264883Y-136730000D01*
X133281313Y-136563177D01*
X133329976Y-136402758D01*
X133408995Y-136254924D01*
X133408996Y-136254922D01*
X133515341Y-136125341D01*
X133644922Y-136018996D01*
X133660094Y-136010886D01*
X133792758Y-135939976D01*
X133953177Y-135891313D01*
X134078196Y-135879000D01*
X135161804Y-135879000D01*
X135286823Y-135891313D01*
X135286823Y-135891313D01*
G37*
G36*
X120008571Y-127632863D02*
G01*
X120087023Y-127640590D01*
X120187682Y-127671125D01*
X120238013Y-127686392D01*
X120377165Y-127760771D01*
X120499133Y-127860867D01*
X120599229Y-127982835D01*
X120673608Y-128121987D01*
X120673608Y-128121988D01*
X120719410Y-128272977D01*
X120734875Y-128430000D01*
X120719410Y-128587023D01*
X120688875Y-128687682D01*
X120673608Y-128738013D01*
X120599229Y-128877165D01*
X120499133Y-128999133D01*
X120377165Y-129099229D01*
X120238013Y-129173608D01*
X120187682Y-129188875D01*
X120087023Y-129219410D01*
X120008571Y-129227137D01*
X119969346Y-129231000D01*
X118790654Y-129231000D01*
X118751429Y-129227137D01*
X118672977Y-129219410D01*
X118572318Y-129188875D01*
X118521987Y-129173608D01*
X118382835Y-129099229D01*
X118260867Y-128999133D01*
X118160771Y-128877165D01*
X118086392Y-128738013D01*
X118071125Y-128687682D01*
X118040590Y-128587023D01*
X118025125Y-128430000D01*
X118040590Y-128272977D01*
X118086392Y-128121988D01*
X118086392Y-128121987D01*
X118160771Y-127982835D01*
X118260867Y-127860867D01*
X118382835Y-127760771D01*
X118521987Y-127686392D01*
X118572318Y-127671125D01*
X118672977Y-127640590D01*
X118751429Y-127632863D01*
X118790654Y-127629000D01*
X119969346Y-127629000D01*
X120008571Y-127632863D01*
X120008571Y-127632863D01*
G37*
G36*
X135248571Y-127632863D02*
G01*
X135327023Y-127640590D01*
X135427682Y-127671125D01*
X135478013Y-127686392D01*
X135617165Y-127760771D01*
X135739133Y-127860867D01*
X135839229Y-127982835D01*
X135913608Y-128121987D01*
X135913608Y-128121988D01*
X135959410Y-128272977D01*
X135974875Y-128430000D01*
X135959410Y-128587023D01*
X135928875Y-128687682D01*
X135913608Y-128738013D01*
X135839229Y-128877165D01*
X135739133Y-128999133D01*
X135617165Y-129099229D01*
X135478013Y-129173608D01*
X135427682Y-129188875D01*
X135327023Y-129219410D01*
X135248571Y-129227137D01*
X135209346Y-129231000D01*
X134030654Y-129231000D01*
X133991429Y-129227137D01*
X133912977Y-129219410D01*
X133812318Y-129188875D01*
X133761987Y-129173608D01*
X133622835Y-129099229D01*
X133500867Y-128999133D01*
X133400771Y-128877165D01*
X133326392Y-128738013D01*
X133311125Y-128687682D01*
X133280590Y-128587023D01*
X133265125Y-128430000D01*
X133280590Y-128272977D01*
X133326392Y-128121988D01*
X133326392Y-128121987D01*
X133400771Y-127982835D01*
X133500867Y-127860867D01*
X133622835Y-127760771D01*
X133761987Y-127686392D01*
X133812318Y-127671125D01*
X133912977Y-127640590D01*
X133991429Y-127632863D01*
X134030654Y-127629000D01*
X135209346Y-127629000D01*
X135248571Y-127632863D01*
X135248571Y-127632863D01*
G37*
G36*
X135248571Y-124772863D02*
G01*
X135327023Y-124780590D01*
X135427682Y-124811125D01*
X135478013Y-124826392D01*
X135617165Y-124900771D01*
X135739133Y-125000867D01*
X135839229Y-125122835D01*
X135913608Y-125261987D01*
X135913608Y-125261988D01*
X135959410Y-125412977D01*
X135974875Y-125570000D01*
X135959410Y-125727023D01*
X135928875Y-125827682D01*
X135913608Y-125878013D01*
X135839229Y-126017165D01*
X135739133Y-126139133D01*
X135617165Y-126239229D01*
X135478013Y-126313608D01*
X135427682Y-126328875D01*
X135327023Y-126359410D01*
X135248571Y-126367137D01*
X135209346Y-126371000D01*
X134030654Y-126371000D01*
X133991429Y-126367137D01*
X133912977Y-126359410D01*
X133812318Y-126328875D01*
X133761987Y-126313608D01*
X133622835Y-126239229D01*
X133500867Y-126139133D01*
X133400771Y-126017165D01*
X133326392Y-125878013D01*
X133311125Y-125827682D01*
X133280590Y-125727023D01*
X133265125Y-125570000D01*
X133280590Y-125412977D01*
X133326392Y-125261988D01*
X133326392Y-125261987D01*
X133400771Y-125122835D01*
X133500867Y-125000867D01*
X133622835Y-124900771D01*
X133761987Y-124826392D01*
X133812318Y-124811125D01*
X133912977Y-124780590D01*
X133991429Y-124772863D01*
X134030654Y-124769000D01*
X135209346Y-124769000D01*
X135248571Y-124772863D01*
X135248571Y-124772863D01*
G37*
G36*
X120008571Y-124772863D02*
G01*
X120087023Y-124780590D01*
X120187682Y-124811125D01*
X120238013Y-124826392D01*
X120377165Y-124900771D01*
X120499133Y-125000867D01*
X120599229Y-125122835D01*
X120673608Y-125261987D01*
X120673608Y-125261988D01*
X120719410Y-125412977D01*
X120734875Y-125570000D01*
X120719410Y-125727023D01*
X120688875Y-125827682D01*
X120673608Y-125878013D01*
X120599229Y-126017165D01*
X120499133Y-126139133D01*
X120377165Y-126239229D01*
X120238013Y-126313608D01*
X120187682Y-126328875D01*
X120087023Y-126359410D01*
X120008571Y-126367137D01*
X119969346Y-126371000D01*
X118790654Y-126371000D01*
X118751429Y-126367137D01*
X118672977Y-126359410D01*
X118572318Y-126328875D01*
X118521987Y-126313608D01*
X118382835Y-126239229D01*
X118260867Y-126139133D01*
X118160771Y-126017165D01*
X118086392Y-125878013D01*
X118071125Y-125827682D01*
X118040590Y-125727023D01*
X118025125Y-125570000D01*
X118040590Y-125412977D01*
X118086392Y-125261988D01*
X118086392Y-125261987D01*
X118160771Y-125122835D01*
X118260867Y-125000867D01*
X118382835Y-124900771D01*
X118521987Y-124826392D01*
X118572318Y-124811125D01*
X118672977Y-124780590D01*
X118751429Y-124772863D01*
X118790654Y-124769000D01*
X119969346Y-124769000D01*
X120008571Y-124772863D01*
X120008571Y-124772863D01*
G37*
G36*
X120046823Y-116431313D02*
G01*
X120207242Y-116479976D01*
X120339906Y-116550886D01*
X120355078Y-116558996D01*
X120484659Y-116665341D01*
X120591004Y-116794922D01*
X120591005Y-116794924D01*
X120670024Y-116942758D01*
X120718687Y-117103177D01*
X120735117Y-117270000D01*
X120718687Y-117436823D01*
X120670024Y-117597242D01*
X120599114Y-117729906D01*
X120591004Y-117745078D01*
X120484659Y-117874659D01*
X120355078Y-117981004D01*
X120355076Y-117981005D01*
X120207242Y-118060024D01*
X120046823Y-118108687D01*
X119921804Y-118121000D01*
X118838196Y-118121000D01*
X118713177Y-118108687D01*
X118552758Y-118060024D01*
X118404924Y-117981005D01*
X118404922Y-117981004D01*
X118275341Y-117874659D01*
X118168996Y-117745078D01*
X118160886Y-117729906D01*
X118089976Y-117597242D01*
X118041313Y-117436823D01*
X118024883Y-117270000D01*
X118041313Y-117103177D01*
X118089976Y-116942758D01*
X118168995Y-116794924D01*
X118168996Y-116794922D01*
X118275341Y-116665341D01*
X118404922Y-116558996D01*
X118420094Y-116550886D01*
X118552758Y-116479976D01*
X118713177Y-116431313D01*
X118838196Y-116419000D01*
X119921804Y-116419000D01*
X120046823Y-116431313D01*
X120046823Y-116431313D01*
G37*
G36*
X135286823Y-116431313D02*
G01*
X135447242Y-116479976D01*
X135579906Y-116550886D01*
X135595078Y-116558996D01*
X135724659Y-116665341D01*
X135831004Y-116794922D01*
X135831005Y-116794924D01*
X135910024Y-116942758D01*
X135958687Y-117103177D01*
X135975117Y-117270000D01*
X135958687Y-117436823D01*
X135910024Y-117597242D01*
X135839114Y-117729906D01*
X135831004Y-117745078D01*
X135724659Y-117874659D01*
X135595078Y-117981004D01*
X135595076Y-117981005D01*
X135447242Y-118060024D01*
X135286823Y-118108687D01*
X135161804Y-118121000D01*
X134078196Y-118121000D01*
X133953177Y-118108687D01*
X133792758Y-118060024D01*
X133644924Y-117981005D01*
X133644922Y-117981004D01*
X133515341Y-117874659D01*
X133408996Y-117745078D01*
X133400886Y-117729906D01*
X133329976Y-117597242D01*
X133281313Y-117436823D01*
X133264883Y-117270000D01*
X133281313Y-117103177D01*
X133329976Y-116942758D01*
X133408995Y-116794924D01*
X133408996Y-116794922D01*
X133515341Y-116665341D01*
X133644922Y-116558996D01*
X133660094Y-116550886D01*
X133792758Y-116479976D01*
X133953177Y-116431313D01*
X134078196Y-116419000D01*
X135161804Y-116419000D01*
X135286823Y-116431313D01*
X135286823Y-116431313D01*
G37*
G36*
X135066228Y-113313483D02*
G01*
X135254922Y-113370723D01*
X135428815Y-113463671D01*
X135581239Y-113588761D01*
X135706329Y-113741185D01*
X135799277Y-113915078D01*
X135856517Y-114103772D01*
X135875843Y-114300000D01*
X135856517Y-114496228D01*
X135799277Y-114684922D01*
X135706329Y-114858815D01*
X135581239Y-115011239D01*
X135428815Y-115136329D01*
X135254922Y-115229277D01*
X135066228Y-115286517D01*
X134919175Y-115301000D01*
X134320825Y-115301000D01*
X134173772Y-115286517D01*
X133985078Y-115229277D01*
X133811185Y-115136329D01*
X133658761Y-115011239D01*
X133533671Y-114858815D01*
X133440723Y-114684922D01*
X133383483Y-114496228D01*
X133364157Y-114300000D01*
X133383483Y-114103772D01*
X133440723Y-113915078D01*
X133533671Y-113741185D01*
X133658761Y-113588761D01*
X133811185Y-113463671D01*
X133985078Y-113370723D01*
X134173772Y-113313483D01*
X134320825Y-113299000D01*
X134919175Y-113299000D01*
X135066228Y-113313483D01*
X135066228Y-113313483D01*
G37*
G36*
X119826228Y-113313483D02*
G01*
X120014922Y-113370723D01*
X120188815Y-113463671D01*
X120341239Y-113588761D01*
X120466329Y-113741185D01*
X120559277Y-113915078D01*
X120616517Y-114103772D01*
X120635843Y-114300000D01*
X120616517Y-114496228D01*
X120559277Y-114684922D01*
X120466329Y-114858815D01*
X120341239Y-115011239D01*
X120188815Y-115136329D01*
X120014922Y-115229277D01*
X119826228Y-115286517D01*
X119679175Y-115301000D01*
X119080825Y-115301000D01*
X118933772Y-115286517D01*
X118745078Y-115229277D01*
X118571185Y-115136329D01*
X118418761Y-115011239D01*
X118293671Y-114858815D01*
X118200723Y-114684922D01*
X118143483Y-114496228D01*
X118124157Y-114300000D01*
X118143483Y-114103772D01*
X118200723Y-113915078D01*
X118293671Y-113741185D01*
X118418761Y-113588761D01*
X118571185Y-113463671D01*
X118745078Y-113370723D01*
X118933772Y-113313483D01*
X119080825Y-113299000D01*
X119679175Y-113299000D01*
X119826228Y-113313483D01*
X119826228Y-113313483D01*
G37*
G36*
X120046823Y-110491313D02*
G01*
X120207242Y-110539976D01*
X120339906Y-110610886D01*
X120355078Y-110618996D01*
X120484659Y-110725341D01*
X120591004Y-110854922D01*
X120591005Y-110854924D01*
X120670024Y-111002758D01*
X120718687Y-111163177D01*
X120735117Y-111330000D01*
X120718687Y-111496823D01*
X120670024Y-111657242D01*
X120599114Y-111789906D01*
X120591004Y-111805078D01*
X120484659Y-111934659D01*
X120355078Y-112041004D01*
X120355076Y-112041005D01*
X120207242Y-112120024D01*
X120046823Y-112168687D01*
X119921804Y-112181000D01*
X118838196Y-112181000D01*
X118713177Y-112168687D01*
X118552758Y-112120024D01*
X118404924Y-112041005D01*
X118404922Y-112041004D01*
X118275341Y-111934659D01*
X118168996Y-111805078D01*
X118160886Y-111789906D01*
X118089976Y-111657242D01*
X118041313Y-111496823D01*
X118024883Y-111330000D01*
X118041313Y-111163177D01*
X118089976Y-111002758D01*
X118168995Y-110854924D01*
X118168996Y-110854922D01*
X118275341Y-110725341D01*
X118404922Y-110618996D01*
X118420094Y-110610886D01*
X118552758Y-110539976D01*
X118713177Y-110491313D01*
X118838196Y-110479000D01*
X119921804Y-110479000D01*
X120046823Y-110491313D01*
X120046823Y-110491313D01*
G37*
G36*
X135286823Y-110491313D02*
G01*
X135447242Y-110539976D01*
X135579906Y-110610886D01*
X135595078Y-110618996D01*
X135724659Y-110725341D01*
X135831004Y-110854922D01*
X135831005Y-110854924D01*
X135910024Y-111002758D01*
X135958687Y-111163177D01*
X135975117Y-111330000D01*
X135958687Y-111496823D01*
X135910024Y-111657242D01*
X135839114Y-111789906D01*
X135831004Y-111805078D01*
X135724659Y-111934659D01*
X135595078Y-112041004D01*
X135595076Y-112041005D01*
X135447242Y-112120024D01*
X135286823Y-112168687D01*
X135161804Y-112181000D01*
X134078196Y-112181000D01*
X133953177Y-112168687D01*
X133792758Y-112120024D01*
X133644924Y-112041005D01*
X133644922Y-112041004D01*
X133515341Y-111934659D01*
X133408996Y-111805078D01*
X133400886Y-111789906D01*
X133329976Y-111657242D01*
X133281313Y-111496823D01*
X133264883Y-111330000D01*
X133281313Y-111163177D01*
X133329976Y-111002758D01*
X133408995Y-110854924D01*
X133408996Y-110854922D01*
X133515341Y-110725341D01*
X133644922Y-110618996D01*
X133660094Y-110610886D01*
X133792758Y-110539976D01*
X133953177Y-110491313D01*
X134078196Y-110479000D01*
X135161804Y-110479000D01*
X135286823Y-110491313D01*
X135286823Y-110491313D01*
G37*
G36*
X135248571Y-102232863D02*
G01*
X135327023Y-102240590D01*
X135427682Y-102271125D01*
X135478013Y-102286392D01*
X135617165Y-102360771D01*
X135739133Y-102460867D01*
X135839229Y-102582835D01*
X135913608Y-102721987D01*
X135913608Y-102721988D01*
X135959410Y-102872977D01*
X135974875Y-103030000D01*
X135959410Y-103187023D01*
X135928875Y-103287682D01*
X135913608Y-103338013D01*
X135839229Y-103477165D01*
X135739133Y-103599133D01*
X135617165Y-103699229D01*
X135478013Y-103773608D01*
X135427682Y-103788875D01*
X135327023Y-103819410D01*
X135248571Y-103827137D01*
X135209346Y-103831000D01*
X134030654Y-103831000D01*
X133991429Y-103827137D01*
X133912977Y-103819410D01*
X133812318Y-103788875D01*
X133761987Y-103773608D01*
X133622835Y-103699229D01*
X133500867Y-103599133D01*
X133400771Y-103477165D01*
X133326392Y-103338013D01*
X133311125Y-103287682D01*
X133280590Y-103187023D01*
X133265125Y-103030000D01*
X133280590Y-102872977D01*
X133326392Y-102721988D01*
X133326392Y-102721987D01*
X133400771Y-102582835D01*
X133500867Y-102460867D01*
X133622835Y-102360771D01*
X133761987Y-102286392D01*
X133812318Y-102271125D01*
X133912977Y-102240590D01*
X133991429Y-102232863D01*
X134030654Y-102229000D01*
X135209346Y-102229000D01*
X135248571Y-102232863D01*
X135248571Y-102232863D01*
G37*
G36*
X120008571Y-102232863D02*
G01*
X120087023Y-102240590D01*
X120187682Y-102271125D01*
X120238013Y-102286392D01*
X120377165Y-102360771D01*
X120499133Y-102460867D01*
X120599229Y-102582835D01*
X120673608Y-102721987D01*
X120673608Y-102721988D01*
X120719410Y-102872977D01*
X120734875Y-103030000D01*
X120719410Y-103187023D01*
X120688875Y-103287682D01*
X120673608Y-103338013D01*
X120599229Y-103477165D01*
X120499133Y-103599133D01*
X120377165Y-103699229D01*
X120238013Y-103773608D01*
X120187682Y-103788875D01*
X120087023Y-103819410D01*
X120008571Y-103827137D01*
X119969346Y-103831000D01*
X118790654Y-103831000D01*
X118751429Y-103827137D01*
X118672977Y-103819410D01*
X118572318Y-103788875D01*
X118521987Y-103773608D01*
X118382835Y-103699229D01*
X118260867Y-103599133D01*
X118160771Y-103477165D01*
X118086392Y-103338013D01*
X118071125Y-103287682D01*
X118040590Y-103187023D01*
X118025125Y-103030000D01*
X118040590Y-102872977D01*
X118086392Y-102721988D01*
X118086392Y-102721987D01*
X118160771Y-102582835D01*
X118260867Y-102460867D01*
X118382835Y-102360771D01*
X118521987Y-102286392D01*
X118572318Y-102271125D01*
X118672977Y-102240590D01*
X118751429Y-102232863D01*
X118790654Y-102229000D01*
X119969346Y-102229000D01*
X120008571Y-102232863D01*
X120008571Y-102232863D01*
G37*
G36*
X120008571Y-99372863D02*
G01*
X120087023Y-99380590D01*
X120187682Y-99411125D01*
X120238013Y-99426392D01*
X120377165Y-99500771D01*
X120499133Y-99600867D01*
X120599229Y-99722835D01*
X120673608Y-99861987D01*
X120673608Y-99861988D01*
X120719410Y-100012977D01*
X120734875Y-100170000D01*
X120719410Y-100327023D01*
X120688875Y-100427682D01*
X120673608Y-100478013D01*
X120599229Y-100617165D01*
X120499133Y-100739133D01*
X120377165Y-100839229D01*
X120238013Y-100913608D01*
X120187682Y-100928875D01*
X120087023Y-100959410D01*
X120008571Y-100967137D01*
X119969346Y-100971000D01*
X118790654Y-100971000D01*
X118751429Y-100967137D01*
X118672977Y-100959410D01*
X118572318Y-100928875D01*
X118521987Y-100913608D01*
X118382835Y-100839229D01*
X118260867Y-100739133D01*
X118160771Y-100617165D01*
X118086392Y-100478013D01*
X118071125Y-100427682D01*
X118040590Y-100327023D01*
X118025125Y-100170000D01*
X118040590Y-100012977D01*
X118086392Y-99861988D01*
X118086392Y-99861987D01*
X118160771Y-99722835D01*
X118260867Y-99600867D01*
X118382835Y-99500771D01*
X118521987Y-99426392D01*
X118572318Y-99411125D01*
X118672977Y-99380590D01*
X118751429Y-99372863D01*
X118790654Y-99369000D01*
X119969346Y-99369000D01*
X120008571Y-99372863D01*
X120008571Y-99372863D01*
G37*
G36*
X135248571Y-99372863D02*
G01*
X135327023Y-99380590D01*
X135427682Y-99411125D01*
X135478013Y-99426392D01*
X135617165Y-99500771D01*
X135739133Y-99600867D01*
X135839229Y-99722835D01*
X135913608Y-99861987D01*
X135913608Y-99861988D01*
X135959410Y-100012977D01*
X135974875Y-100170000D01*
X135959410Y-100327023D01*
X135928875Y-100427682D01*
X135913608Y-100478013D01*
X135839229Y-100617165D01*
X135739133Y-100739133D01*
X135617165Y-100839229D01*
X135478013Y-100913608D01*
X135427682Y-100928875D01*
X135327023Y-100959410D01*
X135248571Y-100967137D01*
X135209346Y-100971000D01*
X134030654Y-100971000D01*
X133991429Y-100967137D01*
X133912977Y-100959410D01*
X133812318Y-100928875D01*
X133761987Y-100913608D01*
X133622835Y-100839229D01*
X133500867Y-100739133D01*
X133400771Y-100617165D01*
X133326392Y-100478013D01*
X133311125Y-100427682D01*
X133280590Y-100327023D01*
X133265125Y-100170000D01*
X133280590Y-100012977D01*
X133326392Y-99861988D01*
X133326392Y-99861987D01*
X133400771Y-99722835D01*
X133500867Y-99600867D01*
X133622835Y-99500771D01*
X133761987Y-99426392D01*
X133812318Y-99411125D01*
X133912977Y-99380590D01*
X133991429Y-99372863D01*
X134030654Y-99369000D01*
X135209346Y-99369000D01*
X135248571Y-99372863D01*
X135248571Y-99372863D01*
G37*
G36*
X135286823Y-91031313D02*
G01*
X135447242Y-91079976D01*
X135579906Y-91150886D01*
X135595078Y-91158996D01*
X135724659Y-91265341D01*
X135831004Y-91394922D01*
X135831005Y-91394924D01*
X135910024Y-91542758D01*
X135958687Y-91703177D01*
X135975117Y-91870000D01*
X135958687Y-92036823D01*
X135910024Y-92197242D01*
X135839114Y-92329906D01*
X135831004Y-92345078D01*
X135724659Y-92474659D01*
X135595078Y-92581004D01*
X135595076Y-92581005D01*
X135447242Y-92660024D01*
X135286823Y-92708687D01*
X135161804Y-92721000D01*
X134078196Y-92721000D01*
X133953177Y-92708687D01*
X133792758Y-92660024D01*
X133644924Y-92581005D01*
X133644922Y-92581004D01*
X133515341Y-92474659D01*
X133408996Y-92345078D01*
X133400886Y-92329906D01*
X133329976Y-92197242D01*
X133281313Y-92036823D01*
X133264883Y-91870000D01*
X133281313Y-91703177D01*
X133329976Y-91542758D01*
X133408995Y-91394924D01*
X133408996Y-91394922D01*
X133515341Y-91265341D01*
X133644922Y-91158996D01*
X133660094Y-91150886D01*
X133792758Y-91079976D01*
X133953177Y-91031313D01*
X134078196Y-91019000D01*
X135161804Y-91019000D01*
X135286823Y-91031313D01*
X135286823Y-91031313D01*
G37*
G36*
X120046823Y-91031313D02*
G01*
X120207242Y-91079976D01*
X120339906Y-91150886D01*
X120355078Y-91158996D01*
X120484659Y-91265341D01*
X120591004Y-91394922D01*
X120591005Y-91394924D01*
X120670024Y-91542758D01*
X120718687Y-91703177D01*
X120735117Y-91870000D01*
X120718687Y-92036823D01*
X120670024Y-92197242D01*
X120599114Y-92329906D01*
X120591004Y-92345078D01*
X120484659Y-92474659D01*
X120355078Y-92581004D01*
X120355076Y-92581005D01*
X120207242Y-92660024D01*
X120046823Y-92708687D01*
X119921804Y-92721000D01*
X118838196Y-92721000D01*
X118713177Y-92708687D01*
X118552758Y-92660024D01*
X118404924Y-92581005D01*
X118404922Y-92581004D01*
X118275341Y-92474659D01*
X118168996Y-92345078D01*
X118160886Y-92329906D01*
X118089976Y-92197242D01*
X118041313Y-92036823D01*
X118024883Y-91870000D01*
X118041313Y-91703177D01*
X118089976Y-91542758D01*
X118168995Y-91394924D01*
X118168996Y-91394922D01*
X118275341Y-91265341D01*
X118404922Y-91158996D01*
X118420094Y-91150886D01*
X118552758Y-91079976D01*
X118713177Y-91031313D01*
X118838196Y-91019000D01*
X119921804Y-91019000D01*
X120046823Y-91031313D01*
X120046823Y-91031313D01*
G37*
G36*
X119826228Y-87913483D02*
G01*
X120014922Y-87970723D01*
X120188815Y-88063671D01*
X120341239Y-88188761D01*
X120466329Y-88341185D01*
X120559277Y-88515078D01*
X120616517Y-88703772D01*
X120635843Y-88900000D01*
X120616517Y-89096228D01*
X120559277Y-89284922D01*
X120466329Y-89458815D01*
X120341239Y-89611239D01*
X120188815Y-89736329D01*
X120014922Y-89829277D01*
X119826228Y-89886517D01*
X119679175Y-89901000D01*
X119080825Y-89901000D01*
X118933772Y-89886517D01*
X118745078Y-89829277D01*
X118571185Y-89736329D01*
X118418761Y-89611239D01*
X118293671Y-89458815D01*
X118200723Y-89284922D01*
X118143483Y-89096228D01*
X118124157Y-88900000D01*
X118143483Y-88703772D01*
X118200723Y-88515078D01*
X118293671Y-88341185D01*
X118418761Y-88188761D01*
X118571185Y-88063671D01*
X118745078Y-87970723D01*
X118933772Y-87913483D01*
X119080825Y-87899000D01*
X119679175Y-87899000D01*
X119826228Y-87913483D01*
X119826228Y-87913483D01*
G37*
G36*
X135066228Y-87913483D02*
G01*
X135254922Y-87970723D01*
X135428815Y-88063671D01*
X135581239Y-88188761D01*
X135706329Y-88341185D01*
X135799277Y-88515078D01*
X135856517Y-88703772D01*
X135875843Y-88900000D01*
X135856517Y-89096228D01*
X135799277Y-89284922D01*
X135706329Y-89458815D01*
X135581239Y-89611239D01*
X135428815Y-89736329D01*
X135254922Y-89829277D01*
X135066228Y-89886517D01*
X134919175Y-89901000D01*
X134320825Y-89901000D01*
X134173772Y-89886517D01*
X133985078Y-89829277D01*
X133811185Y-89736329D01*
X133658761Y-89611239D01*
X133533671Y-89458815D01*
X133440723Y-89284922D01*
X133383483Y-89096228D01*
X133364157Y-88900000D01*
X133383483Y-88703772D01*
X133440723Y-88515078D01*
X133533671Y-88341185D01*
X133658761Y-88188761D01*
X133811185Y-88063671D01*
X133985078Y-87970723D01*
X134173772Y-87913483D01*
X134320825Y-87899000D01*
X134919175Y-87899000D01*
X135066228Y-87913483D01*
X135066228Y-87913483D01*
G37*
G36*
X120046823Y-85091313D02*
G01*
X120207242Y-85139976D01*
X120339906Y-85210886D01*
X120355078Y-85218996D01*
X120484659Y-85325341D01*
X120591004Y-85454922D01*
X120591005Y-85454924D01*
X120670024Y-85602758D01*
X120718687Y-85763177D01*
X120735117Y-85930000D01*
X120718687Y-86096823D01*
X120670024Y-86257242D01*
X120599114Y-86389906D01*
X120591004Y-86405078D01*
X120484659Y-86534659D01*
X120355078Y-86641004D01*
X120355076Y-86641005D01*
X120207242Y-86720024D01*
X120046823Y-86768687D01*
X119921804Y-86781000D01*
X118838196Y-86781000D01*
X118713177Y-86768687D01*
X118552758Y-86720024D01*
X118404924Y-86641005D01*
X118404922Y-86641004D01*
X118275341Y-86534659D01*
X118168996Y-86405078D01*
X118160886Y-86389906D01*
X118089976Y-86257242D01*
X118041313Y-86096823D01*
X118024883Y-85930000D01*
X118041313Y-85763177D01*
X118089976Y-85602758D01*
X118168995Y-85454924D01*
X118168996Y-85454922D01*
X118275341Y-85325341D01*
X118404922Y-85218996D01*
X118420094Y-85210886D01*
X118552758Y-85139976D01*
X118713177Y-85091313D01*
X118838196Y-85079000D01*
X119921804Y-85079000D01*
X120046823Y-85091313D01*
X120046823Y-85091313D01*
G37*
G36*
X135286823Y-85091313D02*
G01*
X135447242Y-85139976D01*
X135579906Y-85210886D01*
X135595078Y-85218996D01*
X135724659Y-85325341D01*
X135831004Y-85454922D01*
X135831005Y-85454924D01*
X135910024Y-85602758D01*
X135958687Y-85763177D01*
X135975117Y-85930000D01*
X135958687Y-86096823D01*
X135910024Y-86257242D01*
X135839114Y-86389906D01*
X135831004Y-86405078D01*
X135724659Y-86534659D01*
X135595078Y-86641004D01*
X135595076Y-86641005D01*
X135447242Y-86720024D01*
X135286823Y-86768687D01*
X135161804Y-86781000D01*
X134078196Y-86781000D01*
X133953177Y-86768687D01*
X133792758Y-86720024D01*
X133644924Y-86641005D01*
X133644922Y-86641004D01*
X133515341Y-86534659D01*
X133408996Y-86405078D01*
X133400886Y-86389906D01*
X133329976Y-86257242D01*
X133281313Y-86096823D01*
X133264883Y-85930000D01*
X133281313Y-85763177D01*
X133329976Y-85602758D01*
X133408995Y-85454924D01*
X133408996Y-85454922D01*
X133515341Y-85325341D01*
X133644922Y-85218996D01*
X133660094Y-85210886D01*
X133792758Y-85139976D01*
X133953177Y-85091313D01*
X134078196Y-85079000D01*
X135161804Y-85079000D01*
X135286823Y-85091313D01*
X135286823Y-85091313D01*
G37*
G36*
X120008571Y-76832863D02*
G01*
X120087023Y-76840590D01*
X120187682Y-76871125D01*
X120238013Y-76886392D01*
X120377165Y-76960771D01*
X120499133Y-77060867D01*
X120599229Y-77182835D01*
X120673608Y-77321987D01*
X120673608Y-77321988D01*
X120719410Y-77472977D01*
X120734875Y-77630000D01*
X120719410Y-77787023D01*
X120688875Y-77887682D01*
X120673608Y-77938013D01*
X120599229Y-78077165D01*
X120499133Y-78199133D01*
X120377165Y-78299229D01*
X120238013Y-78373608D01*
X120187682Y-78388875D01*
X120087023Y-78419410D01*
X120008571Y-78427137D01*
X119969346Y-78431000D01*
X118790654Y-78431000D01*
X118751429Y-78427137D01*
X118672977Y-78419410D01*
X118572318Y-78388875D01*
X118521987Y-78373608D01*
X118382835Y-78299229D01*
X118260867Y-78199133D01*
X118160771Y-78077165D01*
X118086392Y-77938013D01*
X118071125Y-77887682D01*
X118040590Y-77787023D01*
X118025125Y-77630000D01*
X118040590Y-77472977D01*
X118086392Y-77321988D01*
X118086392Y-77321987D01*
X118160771Y-77182835D01*
X118260867Y-77060867D01*
X118382835Y-76960771D01*
X118521987Y-76886392D01*
X118572318Y-76871125D01*
X118672977Y-76840590D01*
X118751429Y-76832863D01*
X118790654Y-76829000D01*
X119969346Y-76829000D01*
X120008571Y-76832863D01*
X120008571Y-76832863D01*
G37*
G36*
X135248571Y-76832863D02*
G01*
X135327023Y-76840590D01*
X135427682Y-76871125D01*
X135478013Y-76886392D01*
X135617165Y-76960771D01*
X135739133Y-77060867D01*
X135839229Y-77182835D01*
X135913608Y-77321987D01*
X135913608Y-77321988D01*
X135959410Y-77472977D01*
X135974875Y-77630000D01*
X135959410Y-77787023D01*
X135928875Y-77887682D01*
X135913608Y-77938013D01*
X135839229Y-78077165D01*
X135739133Y-78199133D01*
X135617165Y-78299229D01*
X135478013Y-78373608D01*
X135427682Y-78388875D01*
X135327023Y-78419410D01*
X135248571Y-78427137D01*
X135209346Y-78431000D01*
X134030654Y-78431000D01*
X133991429Y-78427137D01*
X133912977Y-78419410D01*
X133812318Y-78388875D01*
X133761987Y-78373608D01*
X133622835Y-78299229D01*
X133500867Y-78199133D01*
X133400771Y-78077165D01*
X133326392Y-77938013D01*
X133311125Y-77887682D01*
X133280590Y-77787023D01*
X133265125Y-77630000D01*
X133280590Y-77472977D01*
X133326392Y-77321988D01*
X133326392Y-77321987D01*
X133400771Y-77182835D01*
X133500867Y-77060867D01*
X133622835Y-76960771D01*
X133761987Y-76886392D01*
X133812318Y-76871125D01*
X133912977Y-76840590D01*
X133991429Y-76832863D01*
X134030654Y-76829000D01*
X135209346Y-76829000D01*
X135248571Y-76832863D01*
X135248571Y-76832863D01*
G37*
G36*
X120008571Y-73972863D02*
G01*
X120087023Y-73980590D01*
X120187682Y-74011125D01*
X120238013Y-74026392D01*
X120377165Y-74100771D01*
X120499133Y-74200867D01*
X120599229Y-74322835D01*
X120673608Y-74461987D01*
X120673608Y-74461988D01*
X120719410Y-74612977D01*
X120734875Y-74770000D01*
X120719410Y-74927023D01*
X120688875Y-75027682D01*
X120673608Y-75078013D01*
X120599229Y-75217165D01*
X120499133Y-75339133D01*
X120377165Y-75439229D01*
X120238013Y-75513608D01*
X120187682Y-75528875D01*
X120087023Y-75559410D01*
X120008571Y-75567137D01*
X119969346Y-75571000D01*
X118790654Y-75571000D01*
X118751429Y-75567137D01*
X118672977Y-75559410D01*
X118572318Y-75528875D01*
X118521987Y-75513608D01*
X118382835Y-75439229D01*
X118260867Y-75339133D01*
X118160771Y-75217165D01*
X118086392Y-75078013D01*
X118071125Y-75027682D01*
X118040590Y-74927023D01*
X118025125Y-74770000D01*
X118040590Y-74612977D01*
X118086392Y-74461988D01*
X118086392Y-74461987D01*
X118160771Y-74322835D01*
X118260867Y-74200867D01*
X118382835Y-74100771D01*
X118521987Y-74026392D01*
X118572318Y-74011125D01*
X118672977Y-73980590D01*
X118751429Y-73972863D01*
X118790654Y-73969000D01*
X119969346Y-73969000D01*
X120008571Y-73972863D01*
X120008571Y-73972863D01*
G37*
G36*
X135248571Y-73972863D02*
G01*
X135327023Y-73980590D01*
X135427682Y-74011125D01*
X135478013Y-74026392D01*
X135617165Y-74100771D01*
X135739133Y-74200867D01*
X135839229Y-74322835D01*
X135913608Y-74461987D01*
X135913608Y-74461988D01*
X135959410Y-74612977D01*
X135974875Y-74770000D01*
X135959410Y-74927023D01*
X135928875Y-75027682D01*
X135913608Y-75078013D01*
X135839229Y-75217165D01*
X135739133Y-75339133D01*
X135617165Y-75439229D01*
X135478013Y-75513608D01*
X135427682Y-75528875D01*
X135327023Y-75559410D01*
X135248571Y-75567137D01*
X135209346Y-75571000D01*
X134030654Y-75571000D01*
X133991429Y-75567137D01*
X133912977Y-75559410D01*
X133812318Y-75528875D01*
X133761987Y-75513608D01*
X133622835Y-75439229D01*
X133500867Y-75339133D01*
X133400771Y-75217165D01*
X133326392Y-75078013D01*
X133311125Y-75027682D01*
X133280590Y-74927023D01*
X133265125Y-74770000D01*
X133280590Y-74612977D01*
X133326392Y-74461988D01*
X133326392Y-74461987D01*
X133400771Y-74322835D01*
X133500867Y-74200867D01*
X133622835Y-74100771D01*
X133761987Y-74026392D01*
X133812318Y-74011125D01*
X133912977Y-73980590D01*
X133991429Y-73972863D01*
X134030654Y-73969000D01*
X135209346Y-73969000D01*
X135248571Y-73972863D01*
X135248571Y-73972863D01*
G37*
G36*
X135286823Y-65631313D02*
G01*
X135447242Y-65679976D01*
X135579906Y-65750886D01*
X135595078Y-65758996D01*
X135724659Y-65865341D01*
X135831004Y-65994922D01*
X135831005Y-65994924D01*
X135910024Y-66142758D01*
X135958687Y-66303177D01*
X135975117Y-66470000D01*
X135958687Y-66636823D01*
X135910024Y-66797242D01*
X135839114Y-66929906D01*
X135831004Y-66945078D01*
X135724659Y-67074659D01*
X135595078Y-67181004D01*
X135595076Y-67181005D01*
X135447242Y-67260024D01*
X135286823Y-67308687D01*
X135161804Y-67321000D01*
X134078196Y-67321000D01*
X133953177Y-67308687D01*
X133792758Y-67260024D01*
X133644924Y-67181005D01*
X133644922Y-67181004D01*
X133515341Y-67074659D01*
X133408996Y-66945078D01*
X133400886Y-66929906D01*
X133329976Y-66797242D01*
X133281313Y-66636823D01*
X133264883Y-66470000D01*
X133281313Y-66303177D01*
X133329976Y-66142758D01*
X133408995Y-65994924D01*
X133408996Y-65994922D01*
X133515341Y-65865341D01*
X133644922Y-65758996D01*
X133660094Y-65750886D01*
X133792758Y-65679976D01*
X133953177Y-65631313D01*
X134078196Y-65619000D01*
X135161804Y-65619000D01*
X135286823Y-65631313D01*
X135286823Y-65631313D01*
G37*
G36*
X120046823Y-65631313D02*
G01*
X120207242Y-65679976D01*
X120339906Y-65750886D01*
X120355078Y-65758996D01*
X120484659Y-65865341D01*
X120591004Y-65994922D01*
X120591005Y-65994924D01*
X120670024Y-66142758D01*
X120718687Y-66303177D01*
X120735117Y-66470000D01*
X120718687Y-66636823D01*
X120670024Y-66797242D01*
X120599114Y-66929906D01*
X120591004Y-66945078D01*
X120484659Y-67074659D01*
X120355078Y-67181004D01*
X120355076Y-67181005D01*
X120207242Y-67260024D01*
X120046823Y-67308687D01*
X119921804Y-67321000D01*
X118838196Y-67321000D01*
X118713177Y-67308687D01*
X118552758Y-67260024D01*
X118404924Y-67181005D01*
X118404922Y-67181004D01*
X118275341Y-67074659D01*
X118168996Y-66945078D01*
X118160886Y-66929906D01*
X118089976Y-66797242D01*
X118041313Y-66636823D01*
X118024883Y-66470000D01*
X118041313Y-66303177D01*
X118089976Y-66142758D01*
X118168995Y-65994924D01*
X118168996Y-65994922D01*
X118275341Y-65865341D01*
X118404922Y-65758996D01*
X118420094Y-65750886D01*
X118552758Y-65679976D01*
X118713177Y-65631313D01*
X118838196Y-65619000D01*
X119921804Y-65619000D01*
X120046823Y-65631313D01*
X120046823Y-65631313D01*
G37*
G36*
X135066228Y-62513483D02*
G01*
X135254922Y-62570723D01*
X135428815Y-62663671D01*
X135581239Y-62788761D01*
X135706329Y-62941185D01*
X135799277Y-63115078D01*
X135856517Y-63303772D01*
X135875843Y-63500000D01*
X135856517Y-63696228D01*
X135799277Y-63884922D01*
X135706329Y-64058815D01*
X135581239Y-64211239D01*
X135428815Y-64336329D01*
X135254922Y-64429277D01*
X135066228Y-64486517D01*
X134919175Y-64501000D01*
X134320825Y-64501000D01*
X134173772Y-64486517D01*
X133985078Y-64429277D01*
X133811185Y-64336329D01*
X133658761Y-64211239D01*
X133533671Y-64058815D01*
X133440723Y-63884922D01*
X133383483Y-63696228D01*
X133364157Y-63500000D01*
X133383483Y-63303772D01*
X133440723Y-63115078D01*
X133533671Y-62941185D01*
X133658761Y-62788761D01*
X133811185Y-62663671D01*
X133985078Y-62570723D01*
X134173772Y-62513483D01*
X134320825Y-62499000D01*
X134919175Y-62499000D01*
X135066228Y-62513483D01*
X135066228Y-62513483D01*
G37*
G36*
X119826228Y-62513483D02*
G01*
X120014922Y-62570723D01*
X120188815Y-62663671D01*
X120341239Y-62788761D01*
X120466329Y-62941185D01*
X120559277Y-63115078D01*
X120616517Y-63303772D01*
X120635843Y-63500000D01*
X120616517Y-63696228D01*
X120559277Y-63884922D01*
X120466329Y-64058815D01*
X120341239Y-64211239D01*
X120188815Y-64336329D01*
X120014922Y-64429277D01*
X119826228Y-64486517D01*
X119679175Y-64501000D01*
X119080825Y-64501000D01*
X118933772Y-64486517D01*
X118745078Y-64429277D01*
X118571185Y-64336329D01*
X118418761Y-64211239D01*
X118293671Y-64058815D01*
X118200723Y-63884922D01*
X118143483Y-63696228D01*
X118124157Y-63500000D01*
X118143483Y-63303772D01*
X118200723Y-63115078D01*
X118293671Y-62941185D01*
X118418761Y-62788761D01*
X118571185Y-62663671D01*
X118745078Y-62570723D01*
X118933772Y-62513483D01*
X119080825Y-62499000D01*
X119679175Y-62499000D01*
X119826228Y-62513483D01*
X119826228Y-62513483D01*
G37*
G36*
X126631000Y-63512000D02*
G01*
X124829000Y-63512000D01*
X124829000Y-61710000D01*
X126631000Y-61710000D01*
X126631000Y-63512000D01*
X126631000Y-63512000D01*
G37*
G36*
X128380442Y-61716518D02*
G01*
X128446627Y-61723037D01*
X128616466Y-61774557D01*
X128772991Y-61858222D01*
X128808729Y-61887552D01*
X128910186Y-61970814D01*
X128993448Y-62072271D01*
X129022778Y-62108009D01*
X129106443Y-62264534D01*
X129157963Y-62434373D01*
X129175359Y-62611000D01*
X129157963Y-62787627D01*
X129106443Y-62957466D01*
X129022778Y-63113991D01*
X129021883Y-63115081D01*
X128910186Y-63251186D01*
X128808729Y-63334448D01*
X128772991Y-63363778D01*
X128616466Y-63447443D01*
X128446627Y-63498963D01*
X128380442Y-63505482D01*
X128314260Y-63512000D01*
X128225740Y-63512000D01*
X128159558Y-63505482D01*
X128093373Y-63498963D01*
X127923534Y-63447443D01*
X127767009Y-63363778D01*
X127731271Y-63334448D01*
X127629814Y-63251186D01*
X127518117Y-63115081D01*
X127517222Y-63113991D01*
X127433557Y-62957466D01*
X127382037Y-62787627D01*
X127364641Y-62611000D01*
X127382037Y-62434373D01*
X127433557Y-62264534D01*
X127517222Y-62108009D01*
X127546552Y-62072271D01*
X127629814Y-61970814D01*
X127731271Y-61887552D01*
X127767009Y-61858222D01*
X127923534Y-61774557D01*
X128093373Y-61723037D01*
X128159558Y-61716518D01*
X128225740Y-61710000D01*
X128314260Y-61710000D01*
X128380442Y-61716518D01*
X128380442Y-61716518D01*
G37*
G36*
X120046823Y-59691313D02*
G01*
X120207242Y-59739976D01*
X120339906Y-59810886D01*
X120355078Y-59818996D01*
X120484659Y-59925341D01*
X120591004Y-60054922D01*
X120591005Y-60054924D01*
X120670024Y-60202758D01*
X120718687Y-60363177D01*
X120735117Y-60530000D01*
X120718687Y-60696823D01*
X120670024Y-60857242D01*
X120599114Y-60989906D01*
X120591004Y-61005078D01*
X120484659Y-61134659D01*
X120355078Y-61241004D01*
X120355076Y-61241005D01*
X120207242Y-61320024D01*
X120046823Y-61368687D01*
X119921804Y-61381000D01*
X118838196Y-61381000D01*
X118713177Y-61368687D01*
X118552758Y-61320024D01*
X118404924Y-61241005D01*
X118404922Y-61241004D01*
X118275341Y-61134659D01*
X118168996Y-61005078D01*
X118160886Y-60989906D01*
X118089976Y-60857242D01*
X118041313Y-60696823D01*
X118024883Y-60530000D01*
X118041313Y-60363177D01*
X118089976Y-60202758D01*
X118168995Y-60054924D01*
X118168996Y-60054922D01*
X118275341Y-59925341D01*
X118404922Y-59818996D01*
X118420094Y-59810886D01*
X118552758Y-59739976D01*
X118713177Y-59691313D01*
X118838196Y-59679000D01*
X119921804Y-59679000D01*
X120046823Y-59691313D01*
X120046823Y-59691313D01*
G37*
G36*
X135286823Y-59691313D02*
G01*
X135447242Y-59739976D01*
X135579906Y-59810886D01*
X135595078Y-59818996D01*
X135724659Y-59925341D01*
X135831004Y-60054922D01*
X135831005Y-60054924D01*
X135910024Y-60202758D01*
X135958687Y-60363177D01*
X135975117Y-60530000D01*
X135958687Y-60696823D01*
X135910024Y-60857242D01*
X135839114Y-60989906D01*
X135831004Y-61005078D01*
X135724659Y-61134659D01*
X135595078Y-61241004D01*
X135595076Y-61241005D01*
X135447242Y-61320024D01*
X135286823Y-61368687D01*
X135161804Y-61381000D01*
X134078196Y-61381000D01*
X133953177Y-61368687D01*
X133792758Y-61320024D01*
X133644924Y-61241005D01*
X133644922Y-61241004D01*
X133515341Y-61134659D01*
X133408996Y-61005078D01*
X133400886Y-60989906D01*
X133329976Y-60857242D01*
X133281313Y-60696823D01*
X133264883Y-60530000D01*
X133281313Y-60363177D01*
X133329976Y-60202758D01*
X133408995Y-60054924D01*
X133408996Y-60054922D01*
X133515341Y-59925341D01*
X133644922Y-59818996D01*
X133660094Y-59810886D01*
X133792758Y-59739976D01*
X133953177Y-59691313D01*
X134078196Y-59679000D01*
X135161804Y-59679000D01*
X135286823Y-59691313D01*
X135286823Y-59691313D01*
G37*
G36*
X128380442Y-59176518D02*
G01*
X128446627Y-59183037D01*
X128616466Y-59234557D01*
X128772991Y-59318222D01*
X128808729Y-59347552D01*
X128910186Y-59430814D01*
X128993448Y-59532271D01*
X129022778Y-59568009D01*
X129106443Y-59724534D01*
X129157963Y-59894373D01*
X129175359Y-60071000D01*
X129157963Y-60247627D01*
X129106443Y-60417466D01*
X129022778Y-60573991D01*
X128993448Y-60609729D01*
X128910186Y-60711186D01*
X128808729Y-60794448D01*
X128772991Y-60823778D01*
X128616466Y-60907443D01*
X128446627Y-60958963D01*
X128380442Y-60965482D01*
X128314260Y-60972000D01*
X128225740Y-60972000D01*
X128159558Y-60965482D01*
X128093373Y-60958963D01*
X127923534Y-60907443D01*
X127767009Y-60823778D01*
X127731271Y-60794448D01*
X127629814Y-60711186D01*
X127546552Y-60609729D01*
X127517222Y-60573991D01*
X127433557Y-60417466D01*
X127382037Y-60247627D01*
X127364641Y-60071000D01*
X127382037Y-59894373D01*
X127433557Y-59724534D01*
X127517222Y-59568009D01*
X127546552Y-59532271D01*
X127629814Y-59430814D01*
X127731271Y-59347552D01*
X127767009Y-59318222D01*
X127923534Y-59234557D01*
X128093373Y-59183037D01*
X128159558Y-59176518D01*
X128225740Y-59170000D01*
X128314260Y-59170000D01*
X128380442Y-59176518D01*
X128380442Y-59176518D01*
G37*
G36*
X125840442Y-59176518D02*
G01*
X125906627Y-59183037D01*
X126076466Y-59234557D01*
X126232991Y-59318222D01*
X126268729Y-59347552D01*
X126370186Y-59430814D01*
X126453448Y-59532271D01*
X126482778Y-59568009D01*
X126566443Y-59724534D01*
X126617963Y-59894373D01*
X126635359Y-60071000D01*
X126617963Y-60247627D01*
X126566443Y-60417466D01*
X126482778Y-60573991D01*
X126453448Y-60609729D01*
X126370186Y-60711186D01*
X126268729Y-60794448D01*
X126232991Y-60823778D01*
X126076466Y-60907443D01*
X125906627Y-60958963D01*
X125840442Y-60965482D01*
X125774260Y-60972000D01*
X125685740Y-60972000D01*
X125619558Y-60965482D01*
X125553373Y-60958963D01*
X125383534Y-60907443D01*
X125227009Y-60823778D01*
X125191271Y-60794448D01*
X125089814Y-60711186D01*
X125006552Y-60609729D01*
X124977222Y-60573991D01*
X124893557Y-60417466D01*
X124842037Y-60247627D01*
X124824641Y-60071000D01*
X124842037Y-59894373D01*
X124893557Y-59724534D01*
X124977222Y-59568009D01*
X125006552Y-59532271D01*
X125089814Y-59430814D01*
X125191271Y-59347552D01*
X125227009Y-59318222D01*
X125383534Y-59234557D01*
X125553373Y-59183037D01*
X125619558Y-59176518D01*
X125685740Y-59170000D01*
X125774260Y-59170000D01*
X125840442Y-59176518D01*
X125840442Y-59176518D01*
G37*
G36*
X125840442Y-56636518D02*
G01*
X125906627Y-56643037D01*
X126076466Y-56694557D01*
X126232991Y-56778222D01*
X126268729Y-56807552D01*
X126370186Y-56890814D01*
X126453448Y-56992271D01*
X126482778Y-57028009D01*
X126566443Y-57184534D01*
X126617963Y-57354373D01*
X126635359Y-57531000D01*
X126617963Y-57707627D01*
X126566443Y-57877466D01*
X126482778Y-58033991D01*
X126453448Y-58069729D01*
X126370186Y-58171186D01*
X126268729Y-58254448D01*
X126232991Y-58283778D01*
X126076466Y-58367443D01*
X125906627Y-58418963D01*
X125840443Y-58425481D01*
X125774260Y-58432000D01*
X125685740Y-58432000D01*
X125619557Y-58425481D01*
X125553373Y-58418963D01*
X125383534Y-58367443D01*
X125227009Y-58283778D01*
X125191271Y-58254448D01*
X125089814Y-58171186D01*
X125006552Y-58069729D01*
X124977222Y-58033991D01*
X124893557Y-57877466D01*
X124842037Y-57707627D01*
X124824641Y-57531000D01*
X124842037Y-57354373D01*
X124893557Y-57184534D01*
X124977222Y-57028009D01*
X125006552Y-56992271D01*
X125089814Y-56890814D01*
X125191271Y-56807552D01*
X125227009Y-56778222D01*
X125383534Y-56694557D01*
X125553373Y-56643037D01*
X125619558Y-56636518D01*
X125685740Y-56630000D01*
X125774260Y-56630000D01*
X125840442Y-56636518D01*
X125840442Y-56636518D01*
G37*
G36*
X128380442Y-56636518D02*
G01*
X128446627Y-56643037D01*
X128616466Y-56694557D01*
X128772991Y-56778222D01*
X128808729Y-56807552D01*
X128910186Y-56890814D01*
X128993448Y-56992271D01*
X129022778Y-57028009D01*
X129106443Y-57184534D01*
X129157963Y-57354373D01*
X129175359Y-57531000D01*
X129157963Y-57707627D01*
X129106443Y-57877466D01*
X129022778Y-58033991D01*
X128993448Y-58069729D01*
X128910186Y-58171186D01*
X128808729Y-58254448D01*
X128772991Y-58283778D01*
X128616466Y-58367443D01*
X128446627Y-58418963D01*
X128380443Y-58425481D01*
X128314260Y-58432000D01*
X128225740Y-58432000D01*
X128159557Y-58425481D01*
X128093373Y-58418963D01*
X127923534Y-58367443D01*
X127767009Y-58283778D01*
X127731271Y-58254448D01*
X127629814Y-58171186D01*
X127546552Y-58069729D01*
X127517222Y-58033991D01*
X127433557Y-57877466D01*
X127382037Y-57707627D01*
X127364641Y-57531000D01*
X127382037Y-57354373D01*
X127433557Y-57184534D01*
X127517222Y-57028009D01*
X127546552Y-56992271D01*
X127629814Y-56890814D01*
X127731271Y-56807552D01*
X127767009Y-56778222D01*
X127923534Y-56694557D01*
X128093373Y-56643037D01*
X128159558Y-56636518D01*
X128225740Y-56630000D01*
X128314260Y-56630000D01*
X128380442Y-56636518D01*
X128380442Y-56636518D01*
G37*
G36*
X125840443Y-54096519D02*
G01*
X125906627Y-54103037D01*
X126076466Y-54154557D01*
X126232991Y-54238222D01*
X126268729Y-54267552D01*
X126370186Y-54350814D01*
X126453448Y-54452271D01*
X126482778Y-54488009D01*
X126566443Y-54644534D01*
X126617963Y-54814373D01*
X126635359Y-54991000D01*
X126617963Y-55167627D01*
X126566443Y-55337466D01*
X126482778Y-55493991D01*
X126453448Y-55529729D01*
X126370186Y-55631186D01*
X126268729Y-55714448D01*
X126232991Y-55743778D01*
X126076466Y-55827443D01*
X125906627Y-55878963D01*
X125840442Y-55885482D01*
X125774260Y-55892000D01*
X125685740Y-55892000D01*
X125619558Y-55885482D01*
X125553373Y-55878963D01*
X125383534Y-55827443D01*
X125227009Y-55743778D01*
X125191271Y-55714448D01*
X125089814Y-55631186D01*
X125006552Y-55529729D01*
X124977222Y-55493991D01*
X124893557Y-55337466D01*
X124842037Y-55167627D01*
X124824641Y-54991000D01*
X124842037Y-54814373D01*
X124893557Y-54644534D01*
X124977222Y-54488009D01*
X125006552Y-54452271D01*
X125089814Y-54350814D01*
X125191271Y-54267552D01*
X125227009Y-54238222D01*
X125383534Y-54154557D01*
X125553373Y-54103037D01*
X125619557Y-54096519D01*
X125685740Y-54090000D01*
X125774260Y-54090000D01*
X125840443Y-54096519D01*
X125840443Y-54096519D01*
G37*
G36*
X128380443Y-54096519D02*
G01*
X128446627Y-54103037D01*
X128616466Y-54154557D01*
X128772991Y-54238222D01*
X128808729Y-54267552D01*
X128910186Y-54350814D01*
X128993448Y-54452271D01*
X129022778Y-54488009D01*
X129106443Y-54644534D01*
X129157963Y-54814373D01*
X129175359Y-54991000D01*
X129157963Y-55167627D01*
X129106443Y-55337466D01*
X129022778Y-55493991D01*
X128993448Y-55529729D01*
X128910186Y-55631186D01*
X128808729Y-55714448D01*
X128772991Y-55743778D01*
X128616466Y-55827443D01*
X128446627Y-55878963D01*
X128380442Y-55885482D01*
X128314260Y-55892000D01*
X128225740Y-55892000D01*
X128159558Y-55885482D01*
X128093373Y-55878963D01*
X127923534Y-55827443D01*
X127767009Y-55743778D01*
X127731271Y-55714448D01*
X127629814Y-55631186D01*
X127546552Y-55529729D01*
X127517222Y-55493991D01*
X127433557Y-55337466D01*
X127382037Y-55167627D01*
X127364641Y-54991000D01*
X127382037Y-54814373D01*
X127433557Y-54644534D01*
X127517222Y-54488009D01*
X127546552Y-54452271D01*
X127629814Y-54350814D01*
X127731271Y-54267552D01*
X127767009Y-54238222D01*
X127923534Y-54154557D01*
X128093373Y-54103037D01*
X128159557Y-54096519D01*
X128225740Y-54090000D01*
X128314260Y-54090000D01*
X128380443Y-54096519D01*
X128380443Y-54096519D01*
G37*
G36*
X128380443Y-51556519D02*
G01*
X128446627Y-51563037D01*
X128616466Y-51614557D01*
X128772991Y-51698222D01*
X128808729Y-51727552D01*
X128910186Y-51810814D01*
X128993448Y-51912271D01*
X129022778Y-51948009D01*
X129106443Y-52104534D01*
X129157963Y-52274373D01*
X129175359Y-52451000D01*
X129157963Y-52627627D01*
X129106443Y-52797466D01*
X129022778Y-52953991D01*
X128993448Y-52989729D01*
X128910186Y-53091186D01*
X128808729Y-53174448D01*
X128772991Y-53203778D01*
X128616466Y-53287443D01*
X128446627Y-53338963D01*
X128380443Y-53345481D01*
X128314260Y-53352000D01*
X128225740Y-53352000D01*
X128159557Y-53345481D01*
X128093373Y-53338963D01*
X127923534Y-53287443D01*
X127767009Y-53203778D01*
X127731271Y-53174448D01*
X127629814Y-53091186D01*
X127546552Y-52989729D01*
X127517222Y-52953991D01*
X127433557Y-52797466D01*
X127382037Y-52627627D01*
X127364641Y-52451000D01*
X127382037Y-52274373D01*
X127433557Y-52104534D01*
X127517222Y-51948009D01*
X127546552Y-51912271D01*
X127629814Y-51810814D01*
X127731271Y-51727552D01*
X127767009Y-51698222D01*
X127923534Y-51614557D01*
X128093373Y-51563037D01*
X128159558Y-51556518D01*
X128225740Y-51550000D01*
X128314260Y-51550000D01*
X128380443Y-51556519D01*
X128380443Y-51556519D01*
G37*
G36*
X125840443Y-51556519D02*
G01*
X125906627Y-51563037D01*
X126076466Y-51614557D01*
X126232991Y-51698222D01*
X126268729Y-51727552D01*
X126370186Y-51810814D01*
X126453448Y-51912271D01*
X126482778Y-51948009D01*
X126566443Y-52104534D01*
X126617963Y-52274373D01*
X126635359Y-52451000D01*
X126617963Y-52627627D01*
X126566443Y-52797466D01*
X126482778Y-52953991D01*
X126453448Y-52989729D01*
X126370186Y-53091186D01*
X126268729Y-53174448D01*
X126232991Y-53203778D01*
X126076466Y-53287443D01*
X125906627Y-53338963D01*
X125840443Y-53345481D01*
X125774260Y-53352000D01*
X125685740Y-53352000D01*
X125619557Y-53345481D01*
X125553373Y-53338963D01*
X125383534Y-53287443D01*
X125227009Y-53203778D01*
X125191271Y-53174448D01*
X125089814Y-53091186D01*
X125006552Y-52989729D01*
X124977222Y-52953991D01*
X124893557Y-52797466D01*
X124842037Y-52627627D01*
X124824641Y-52451000D01*
X124842037Y-52274373D01*
X124893557Y-52104534D01*
X124977222Y-51948009D01*
X125006552Y-51912271D01*
X125089814Y-51810814D01*
X125191271Y-51727552D01*
X125227009Y-51698222D01*
X125383534Y-51614557D01*
X125553373Y-51563037D01*
X125619558Y-51556518D01*
X125685740Y-51550000D01*
X125774260Y-51550000D01*
X125840443Y-51556519D01*
X125840443Y-51556519D01*
G37*
G36*
X135248571Y-51432863D02*
G01*
X135327023Y-51440590D01*
X135427682Y-51471125D01*
X135478013Y-51486392D01*
X135617165Y-51560771D01*
X135739133Y-51660867D01*
X135839229Y-51782835D01*
X135913608Y-51921987D01*
X135921502Y-51948011D01*
X135959410Y-52072977D01*
X135974875Y-52230000D01*
X135959410Y-52387023D01*
X135940003Y-52451000D01*
X135913608Y-52538013D01*
X135839229Y-52677165D01*
X135739133Y-52799133D01*
X135617165Y-52899229D01*
X135478013Y-52973608D01*
X135427682Y-52988875D01*
X135327023Y-53019410D01*
X135248571Y-53027137D01*
X135209346Y-53031000D01*
X134030654Y-53031000D01*
X133991429Y-53027137D01*
X133912977Y-53019410D01*
X133812318Y-52988875D01*
X133761987Y-52973608D01*
X133622835Y-52899229D01*
X133500867Y-52799133D01*
X133400771Y-52677165D01*
X133326392Y-52538013D01*
X133299997Y-52451000D01*
X133280590Y-52387023D01*
X133265125Y-52230000D01*
X133280590Y-52072977D01*
X133318498Y-51948011D01*
X133326392Y-51921987D01*
X133400771Y-51782835D01*
X133500867Y-51660867D01*
X133622835Y-51560771D01*
X133761987Y-51486392D01*
X133812318Y-51471125D01*
X133912977Y-51440590D01*
X133991429Y-51432863D01*
X134030654Y-51429000D01*
X135209346Y-51429000D01*
X135248571Y-51432863D01*
X135248571Y-51432863D01*
G37*
G36*
X120008571Y-51432863D02*
G01*
X120087023Y-51440590D01*
X120187682Y-51471125D01*
X120238013Y-51486392D01*
X120377165Y-51560771D01*
X120499133Y-51660867D01*
X120599229Y-51782835D01*
X120673608Y-51921987D01*
X120681502Y-51948011D01*
X120719410Y-52072977D01*
X120734875Y-52230000D01*
X120719410Y-52387023D01*
X120700003Y-52451000D01*
X120673608Y-52538013D01*
X120599229Y-52677165D01*
X120499133Y-52799133D01*
X120377165Y-52899229D01*
X120238013Y-52973608D01*
X120187682Y-52988875D01*
X120087023Y-53019410D01*
X120008571Y-53027137D01*
X119969346Y-53031000D01*
X118790654Y-53031000D01*
X118751429Y-53027137D01*
X118672977Y-53019410D01*
X118572318Y-52988875D01*
X118521987Y-52973608D01*
X118382835Y-52899229D01*
X118260867Y-52799133D01*
X118160771Y-52677165D01*
X118086392Y-52538013D01*
X118059997Y-52451000D01*
X118040590Y-52387023D01*
X118025125Y-52230000D01*
X118040590Y-52072977D01*
X118078498Y-51948011D01*
X118086392Y-51921987D01*
X118160771Y-51782835D01*
X118260867Y-51660867D01*
X118382835Y-51560771D01*
X118521987Y-51486392D01*
X118572318Y-51471125D01*
X118672977Y-51440590D01*
X118751429Y-51432863D01*
X118790654Y-51429000D01*
X119969346Y-51429000D01*
X120008571Y-51432863D01*
X120008571Y-51432863D01*
G37*
M02*
